<svg width="101" height="70" viewBox="0 0 101 70" fill="none" xmlns="http://www.w3.org/2000/svg">
<g filter="url(#filter0_d)">
<rect x="5" y="5" width="81" height="50" rx="5" fill="#56CCF2"/>
</g>
<path d="M29.344 27.136C28.688 26.24 27.76 25.792 26.544 25.792C25.44 25.792 24.512 26.192 23.728 27.008C22.944 27.824 22.56 28.816 22.56 30C22.56 31.168 22.944 32.176 23.728 32.992C24.512 33.808 25.44 34.208 26.544 34.208C27.76 34.208 28.688 33.76 29.344 32.848V34H31.072V26H29.344V27.136ZM25.008 31.84C24.528 31.344 24.288 30.736 24.288 30C24.288 29.264 24.528 28.656 25.008 28.176C25.488 27.68 26.096 27.44 26.816 27.44C27.536 27.44 28.144 27.68 28.624 28.176C29.104 28.656 29.344 29.264 29.344 30C29.344 30.736 29.104 31.344 28.624 31.84C28.144 32.32 27.536 32.56 26.816 32.56C26.096 32.56 25.488 32.32 25.008 31.84ZM38.0781 22.592C35.7101 22.448 34.4621 23.648 34.4621 25.84V26H33.2461V27.664H34.4621V34H36.1901V27.664H38.0781V26H36.1901V25.84C36.1901 24.672 36.8141 24.144 38.0781 24.256V22.592ZM41.6173 26H39.8893V34H41.6173V29.968C41.6173 29.152 41.8573 28.56 42.3533 28.208C42.8493 27.84 43.4253 27.68 44.0813 27.728V25.856C42.8813 25.856 42.0493 26.352 41.6173 27.344V26ZM47.79 24.48C48.238 24.032 48.238 23.36 47.806 22.928C47.374 22.48 46.67 22.48 46.238 22.928C45.806 23.36 45.806 24.032 46.238 24.48C46.686 24.912 47.358 24.912 47.79 24.48ZM47.886 34V26H46.158V34H47.886ZM57.0284 27.136C56.3724 26.24 55.4444 25.792 54.2284 25.792C53.1244 25.792 52.1964 26.192 51.4124 27.008C50.6284 27.824 50.2444 28.816 50.2444 30C50.2444 31.168 50.6284 32.176 51.4124 32.992C52.1964 33.808 53.1244 34.208 54.2284 34.208C55.4444 34.208 56.3724 33.76 57.0284 32.848V34H58.7564V26H57.0284V27.136ZM52.6924 31.84C52.2124 31.344 51.9724 30.736 51.9724 30C51.9724 29.264 52.2124 28.656 52.6924 28.176C53.1724 27.68 53.7804 27.44 54.5004 27.44C55.2204 27.44 55.8284 27.68 56.3084 28.176C56.7884 28.656 57.0284 29.264 57.0284 30C57.0284 30.736 56.7884 31.344 56.3084 31.84C55.8284 32.32 55.2204 32.56 54.5004 32.56C53.7804 32.56 53.1724 32.32 52.6924 31.84ZM65.7785 25.792C64.6425 25.792 63.8265 26.208 63.2985 27.024V26H61.5705V34H63.2985V29.712C63.2985 28.16 64.1145 27.408 65.3305 27.408C66.4345 27.408 67.1225 28.064 67.1225 29.264V34H68.8505V29.088C68.8505 27.04 67.6185 25.792 65.7785 25.792Z" fill="white"/>
<defs>
<filter id="filter0_d" x="0" y="0" width="101" height="70" filterUnits="userSpaceOnUse" color-interpolation-filters="sRGB">
<feFlood flood-opacity="0" result="BackgroundImageFix"/>
<feColorMatrix in="SourceAlpha" type="matrix" values="0 0 0 0 0 0 0 0 0 0 0 0 0 0 0 0 0 0 127 0"/>
<feOffset dx="5" dy="5"/>
<feGaussianBlur stdDeviation="5"/>
<feColorMatrix type="matrix" values="0 0 0 0 0.0627451 0 0 0 0 0.439216 0 0 0 0 0.694118 0 0 0 0.2 0"/>
<feBlend mode="normal" in2="BackgroundImageFix" result="effect1_dropShadow"/>
<feBlend mode="normal" in="SourceGraphic" in2="effect1_dropShadow" result="shape"/>
</filter>
</defs>
</svg>
