<svg width="18" height="19" viewBox="0 0 18 19" fill="none" xmlns="http://www.w3.org/2000/svg">
<path d="M18 6.76224C18 3.012 14 0.0118103 9 0.0118103C4 0.0118103 0 3.012 0 6.76224C0 9.08739 1.6 11.1875 4 12.3876V14.2627C4 15.2378 4.8 16.0628 6 16.3629V16.5129C6 17.788 7.3 18.763 9 18.763C10.7 18.763 12 17.788 12 16.5129V16.3629C13.2 16.0628 14 15.2378 14 14.2627V12.3876C16.4 11.1875 18 9.08739 18 6.76224ZM2 6.76224C2 3.83706 5.1 1.51191 9 1.51191C12.9 1.51191 16 3.83706 16 6.76224C16 9.38741 13.4 11.5626 10 11.9376V10.0625L11.7 8.78737C12.1 8.48736 12.1 8.03733 11.7 7.73731C11.3 7.43729 10.7 7.43729 10.3 7.73731L9 8.71237L7.7 7.73731C7.3 7.43729 6.7 7.43729 6.3 7.73731C5.9 8.03733 5.9 8.48736 6.3 8.78737L8 10.0625V11.9376C4.6 11.5626 2 9.38741 2 6.76224ZM9 17.2629C8.4 17.2629 8 16.9629 8 16.5129H10C10 16.9629 9.6 17.2629 9 17.2629ZM12 14.2627C12 14.7128 11.6 15.0128 11 15.0128H7C6.4 15.0128 6 14.7128 6 14.2627V13.1377C6.9 13.3627 7.9 13.5127 9 13.5127C10.1 13.5127 11.1 13.3627 12 13.1377V14.2627Z" fill="white"/>
</svg>
