<svg width="24" height="19" viewBox="0 0 24 19" fill="none" xmlns="http://www.w3.org/2000/svg">
<g clip-path="url(#clip0)">
<path d="M18 6.01221H17V4.51211C17 2.44198 14.76 0.761871 12 0.761871C9.24 0.761871 7 2.44198 7 4.51211V6.01221H6C4.9 6.01221 4 6.68725 4 7.51231V15.0128C4 15.8378 4.9 16.5129 6 16.5129H18C19.1 16.5129 20 15.8378 20 15.0128V7.51231C20 6.68725 19.1 6.01221 18 6.01221ZM12 12.7626C10.9 12.7626 10 12.0876 10 11.2625C10 10.4375 10.9 9.76245 12 9.76245C13.1 9.76245 14 10.4375 14 11.2625C14 12.0876 13.1 12.7626 12 12.7626ZM15.1 6.01221H8.9V4.51211C8.9 3.22953 10.29 2.18696 12 2.18696C13.71 2.18696 15.1 3.22953 15.1 4.51211V6.01221Z" fill="white"/>
</g>
<defs>
<clipPath id="clip0">
<rect y="0.0118103" width="24" height="18.0012" fill="white"/>
</clipPath>
</defs>
</svg>
