<svg width="20" height="16" viewBox="0 0 20 16" fill="none" xmlns="http://www.w3.org/2000/svg">
<path d="M20 7.00737H15.83L19.07 4.57721L17.66 3.51214L13 7.00737H11V5.50727L15.66 2.01204L14.24 0.954473L11 3.38463V0.256927H9V3.38463L5.76 0.954473L4.34 2.01204L9 5.50727V7.00737H7L2.34 3.51214L0.93 4.57721L4.17 7.00737H0V8.50746H4.17L0.93 10.9376L2.34 12.0027L7 8.50746H9V10.0076L4.34 13.5028L5.76 14.5604L9 12.1302V15.2579H11V12.1302L14.24 14.5604L15.66 13.5028L11 10.0076V8.50746H13L17.66 12.0027L19.07 10.9376L15.83 8.50746H20V7.00737Z" fill="white"/>
</svg>
