<?xml version="1.0" encoding="UTF-8"?>
<!DOCTYPE svg PUBLIC "-//W3C//DTD SVG 1.1//EN" "http://www.w3.org/Graphics/SVG/1.1/DTD/svg11.dtd">
<!-- Creator: CorelDRAW -->
<svg xmlns="http://www.w3.org/2000/svg" xml:space="preserve" width="437px" height="429px" style="shape-rendering:geometricPrecision; text-rendering:geometricPrecision; image-rendering:optimizeQuality; fill-rule:evenodd; clip-rule:evenodd"
viewBox="0 0 423.767 416.681"
 xmlns:xlink="http://www.w3.org/1999/xlink">
 <defs>
  <style type="text/css">
   <![CDATA[
    .fil4 {fill:#7E57C2}
    .fil8 {fill:black;fill-opacity:0.149020}
    .fil5 {fill:url(#id2)}
    .fil0 {fill:url(#id3)}
    .fil1 {fill:url(#id4)}
    .fil2 {fill:url(#id5)}
    .fil7 {fill:url(#id6)}
    .fil3 {fill:url(#id7)}
    .fil6 {fill:url(#id8)}
   ]]>
  </style>
   <mask id="id0">
  <linearGradient id="id1" gradientUnits="userSpaceOnUse" x1="204.508" y1="-6.58855" x2="198.164" y2="408.869">
   <stop offset="0" style="stop-opacity:0; stop-color:white"/>
   <stop offset="0.85098" style="stop-opacity:0.6; stop-color:white"/>
   <stop offset="1" style="stop-opacity:0.964706; stop-color:white"/>
  </linearGradient>
    <rect style="fill:url(#id1)" x="-1.39431" y="-3.98569" width="405.461" height="410.251"/>
   </mask>
  <linearGradient id="id2" gradientUnits="userSpaceOnUse" x1="255.239" y1="416.716" x2="107.145" y2="316.195">
   <stop offset="0" style="stop-color:#FFF8E1"/>
   <stop offset="0.980392" style="stop-color:#FFF8E1"/>
   <stop offset="1" style="stop-color:#FFCC80"/>
  </linearGradient>
  <linearGradient id="id3" gradientUnits="userSpaceOnUse" x1="204.508" y1="-6.58855" x2="198.164" y2="408.869">
   <stop offset="0" style="stop-color:white"/>
   <stop offset="0.231373" style="stop-color:white"/>
   <stop offset="0.568627" style="stop-color:#7DC1F8"/>
   <stop offset="1" style="stop-color:#64B5F6"/>
  </linearGradient>
  <linearGradient id="id4" gradientUnits="userSpaceOnUse" x1="252.917" y1="215.95" x2="306.782" y2="311.71">
   <stop offset="0" style="stop-color:#E57373"/>
   <stop offset="0.819608" style="stop-color:#E57373"/>
   <stop offset="1" style="stop-color:#AD1457"/>
  </linearGradient>
  <linearGradient id="id5" gradientUnits="userSpaceOnUse" x1="223.1" y1="195.067" x2="178.583" y2="416.276">
   <stop offset="0" style="stop-color:#E57373"/>
   <stop offset="0.85098" style="stop-color:#E57373"/>
   <stop offset="1" style="stop-color:#AD1457"/>
  </linearGradient>
  <linearGradient id="id6" gradientUnits="userSpaceOnUse" x1="244.251" y1="40.3294" x2="146.959" y2="172.146">
   <stop offset="0" style="stop-color:#F4511E"/>
   <stop offset="1" style="stop-color:#F4511E"/>
   <stop offset="1.03922" style="stop-color:#FFB74D"/>
   <stop offset="1" style="stop-color:#FFB74D"/>
  </linearGradient>
  <linearGradient id="id7" gradientUnits="userSpaceOnUse" x1="427.414" y1="233.223" x2="278.379" y2="319.663">
   <stop offset="0" style="stop-color:#FFF8E1"/>
   <stop offset="0.929412" style="stop-color:#FFF8E1"/>
   <stop offset="1" style="stop-color:#FFCC80"/>
  </linearGradient>
  <linearGradient id="id8" gradientUnits="userSpaceOnUse" x1="252.705" y1="141.087" x2="172.507" y2="173.762">
   <stop offset="0" style="stop-color:#FFCC80"/>
   <stop offset="1" style="stop-color:#FFCC80"/>
   <stop offset="1.03922" style="stop-color:#FFF8E1"/>
   <stop offset="1" style="stop-color:#FFF8E1"/>
  </linearGradient>
 </defs>
 <g id="Layer_x0020_1">
  <metadata id="CorelCorpID_0Corel-Layer"/>
  <path class="fil0" style="mask:url(#id0)" d="M403.628 200.45c0.0240793,27.8586 -5.81228,55.4145 -17.1353,80.9052 -11.3253,25.4896 -27.8827,48.3466 -48.6195,67.1101 -5.76985,5.22406 -11.8344,10.1144 -18.1627,14.654 -8.12504,5.82145 -16.6801,11.0272 -25.5871,15.5781l-0.0940239 0c-1.89997,0.991837 -3.82861,1.93208 -5.77329,2.84594 -0.889787,0.433427 -1.76008,0.833602 -2.66133,1.23722 -5.63685,2.56387 -11.4124,4.86631 -17.3382,6.90846 -4.66909,1.54337 -9.46201,3.09132 -14.3042,4.3595 -27.9194,7.37514 -57.1046,8.73963 -85.5984,4.00175 -3.37913,-0.556117 -6.7078,-1.1902 -10.0239,-1.91488l-2.80352 -0.634088c-8.45527,-1.96303 -16.7729,-4.47187 -24.9003,-7.51159 -4.72069,-1.76237 -9.34849,-3.6956 -13.8823,-5.79737 -1.75893,-0.818696 -3.51787,-1.65344 -5.2447,-2.52144 -1.18332,-0.584783 -2.3506,-1.18906 -3.51787,-1.79219 -31.6677,-16.5161 -58.3464,-41.093 -77.3037,-71.2185 -18.9573,-30.1232 -29.5132,-64.7114 -30.5864,-100.219 -1.0721,-35.5078 7.37629,-70.6601 24.4818,-101.86 17.1055,-31.1964 42.2523,-57.3202 72.8651,-75.6927 30.6139,-18.3725 65.5943,-28.3344 101.36,-28.8653 35.7658,-0.530891 71.027,8.38762 102.181,25.8428 31.154,17.4552 57.0748,42.8198 75.1113,73.4969 18.0388,30.6747 27.541,65.5644 27.5375,101.087z"/>
  <path class="fil1" d="M254.699 214.948c12.8538,13.1393 50.3005,64.271 50.3005,64.271l-23.0026 33.4931 -20.6841 -66.5402 -6.61378 -31.224z"/>
  <path class="fil2" d="M294.03 378.806c-1.89997,0.989544 -3.82861,1.93322 -5.77673,2.84594 -0.886347,0.431134 -1.75664,0.834748 -2.66019,1.23492 -5.63455,2.56616 -11.4136,4.8686 -17.3382,6.91075 -4.66909,1.54451 -9.46316,3.09132 -14.3019,4.35606 -27.9194,7.37858 -57.1046,8.74422 -85.6019,4.00519 -3.37569,-0.55497 -6.7078,-1.18906 -10.0227,-1.91717 -12.1383,8.31538 -23.3443,15.3477 -30.7687,18.5479l0.606569 -5.14494 2.52144 -21.5338 5.83636 -50.0941 23.1264 -22.2137 -51.9963 4.00519c0,0 5.46256,-75.2753 26.7853,-90.7628 21.3216,-15.4899 43.6867,-29.3698 43.6867,-29.3698 2.66707,1.74747 5.60703,3.0489 8.70065,3.84925 7.39349,2.03069 15.0817,2.8104 22.7389,2.30358 9.11917,-0.418521 18.2395,-8.84054 18.6764,-9.27511 0,0 14.3157,2.8276 26.4574,18.4551 6.05537,8.04592 10.4,17.2259 12.7781,26.9883 2.98812,11.4228 8.29474,38.1015 14.3352,70.3299 3.95244,20.7426 8.10669,43.744 12.2174,66.4795z"/>
  <path class="fil3" d="M305 279.28l22.1954 25.8302 78.0501 -76.9471 2.95831 -15.7513 15.5632 -13.4305 -6.92566 20.4812 0 26.6764c0,0 -60.2005,96.918 -76.7923,101.908 -19.4068,5.85815 -58.0208,-35.3644 -58.0208,-35.3644l22.9716 -33.4026z"/>
  <polygon class="fil4" points="223.979,314.599 242.078,357.879 265.47,347.892 248.319,305.54 "/>
  <path class="fil5" d="M249.19 342.561c-2.90901,2.37926 -7.2536,1.82429 -12.6382,2.09948 -7.23296,0.191488 -14.1747,2.89181 -19.6109,7.63657 -7.23525,6.04275 -27.4676,21.8583 -47.6999,36.2932 -3.67381,2.61203 -7.34877,5.19425 -10.8953,7.7306 -12.1405,8.31538 -23.3454,15.3477 -30.7699,18.5456 -1.95157,0.964318 -4.05908,1.57433 -6.22507,1.81053 -10.3965,0.261432 -12.6221,-21.379 -13.2608,-38.645 -0.201807,-5.73316 -0.248819,-10.9733 -0.357749,-14.7595 -0.43572,-15.147 0,-43.2796 0,-43.2796l51.9975 -4.02009 -5.50957 35.7692 -0.964318 6.32253 0 0.0447187 15.5632 -5.71826 0.482732 -0.169702 55.2505 -20.3871 3.8137 -6.5381 2.42742 6.18035 0.233913 0 23.6573 -3.08903c0,0 0.403615,9.36569 -5.49466,14.1735z"/>
  <path class="fil6" d="M237.252 116.981c-1.35647,-3.67725 -2.52144,-6.18264 -2.86429,-6.92337l0 -0.184608c0,0 -1.19823,2.93653 -10.2268,2.22332 -9.02514,-0.709766 -12.0133,-5.16099 -12.0133,-5.16099 0,0 2.83333,9.64547 -7.92208,13.7711 -10.3507,3.98913 -14.4281,1.40806 -14.7079,1.22231 0.543504,0.585929 8.63758,9.17994 3.2679,15.9978 -5.55543,7.06211 -18.0537,5.67239 -18.0537,5.67239l0 0.0917306c1.57433,3.53736 3.33326,6.98987 5.27566,10.3415 1.02853,1.76352 2.03871,3.38601 3.11196,4.89956l0 0.110077c2.75765,4.45008 6.48077,8.23626 10.8942,11.0822 -1.93781,11.3104 -7.51388,21.6943 -15.8877,29.598 2.81613,1.46196 5.7217,2.74504 8.69835,3.84925 5.80655,2.1786 13.6036,4.34459 20.5603,3.74032 8.06083,-0.855388 15.5082,-4.66794 20.8871,-10.6969l-3.56488 -13.5853 -3.20598 -12.2414c28.9788,-7.34189 21.012,-39.2756 15.7513,-53.8069zm-17.368 54.2529l0.512545 -0.121543 0.824429 -0.232766c-1.20052,0.514838 -2.4687,0.857681 -3.76783,1.02165 0.67078,-0.171995 1.35647,-0.357749 2.07196,-0.573316l0.358896 -0.0940239z"/>
  <path class="fil7" d="M254.699 109.469c-11.9525,10.9125 -17.1192,7.83609 -17.4472,7.54484l0 -0.0332523c-1.35303,-3.67725 -2.52144,-6.18264 -2.84594,-6.92337l-0.0791176 -0.184608c0,0 -1.21314,2.93653 -10.2417,2.22332 -9.02514,-0.709766 -11.9984,-5.16099 -11.9984,-5.16099 0,0 2.83333,9.64547 -7.92208,13.7711 -10.3656,3.98913 -14.443,1.40806 -14.7079,1.22231 0.546944,0.571023 8.63758,9.16503 3.2679,15.9818 -5.55543,7.06326 -18.0537,5.68844 -18.0537,5.68844l0 0.0756777c1.57433,3.54424 3.33326,6.99904 5.27566,10.3575 1.0377,1.75091 2.07426,3.38601 3.11196,4.89956l0 0.110077c0,0 -4.26203,8.33029 -11.8734,8.16058 -7.60905,-0.169702 -7.78219,-7.7306 -7.78219,-7.7306 0,0 -5.38459,9.64433 -22.0222,0.355456 -16.6376,-9.29002 -5.53938,-22.7503 -5.53938,-22.7503 0,0 -11.7977,-8.96552 -11.7977,-22.3983 0,-13.4317 18.3656,-23.6493 18.3656,-23.6493 0,0 -6.56791,-15.5953 4.51085,-24.1894 11.0822,-8.59401 27.7347,-2.76682 27.7347,-2.76682 0,0 -0.324497,-19.9548 16.6376,-19.6303 16.9656,0.324497 20.8091,10.6339 20.8091,10.6339 0,0 15.2537,-11.7163 30.3502,-0.679953 15.0966,11.0363 8.8864,30.2803 8.8864,30.2803 0,0 15.827,13.4305 3.36078,24.7925z"/>
  <path class="fil8" d="M224.832 182.984c-7.23525,-2.27263 -20.1085,-10.9469 -20.1085,-10.9469 5.07844,0.534331 10.2119,0.264872 15.2055,-0.800349l0.512545 -0.124983 0.998717 -0.293538 0.139889 0 3.25185 12.1658z"/>
  <path class="fil8" d="M166.671 269.571l-7.01739 46.3721 -5.50957 35.7681 -12.8239 10.588 27.9044 -10.0628c0,0 -7.23869,-20.527 -2.55355,-82.6653z"/>
  <path class="fil8" d="M158.297 396.242c3.31606,0.728112 6.64703,1.3622 10.0239,1.91717 0.169702,-3.167 0.482732,-6.3684 0.919599,-9.56865l-10.9435 7.65148z"/>
 </g>
</svg>
