<?xml version="1.0" encoding="UTF-8"?>
<!DOCTYPE svg PUBLIC "-//W3C//DTD SVG 1.1//EN" "http://www.w3.org/Graphics/SVG/1.1/DTD/svg11.dtd">
<!-- Creator: CorelDRAW -->
<svg xmlns="http://www.w3.org/2000/svg" xml:space="preserve" width="2420px" height="1904px" style="shape-rendering:geometricPrecision; text-rendering:geometricPrecision; image-rendering:optimizeQuality; fill-rule:evenodd; clip-rule:evenodd"
viewBox="0 0 2169.86 1707.5"
 xmlns:xlink="http://www.w3.org/1999/xlink">
 <defs>
  <style type="text/css">
   <![CDATA[
    .fil14 {fill:none}
    .fil0 {fill:#1F3F68}
    .fil5 {fill:#316099}
    .fil18 {fill:#56CCF2}
    .fil15 {fill:#6FCF97}
    .fil6 {fill:#98C3E8}
    .fil10 {fill:#C1FEBB}
    .fil1 {fill:#D06262}
    .fil13 {fill:#EB5757}
    .fil4 {fill:#F2994A}
    .fil8 {fill:#FA9595}
    .fil9 {fill:#FDF397}
    .fil2 {fill:white}
    .fil17 {fill:white;fill-rule:nonzero}
    .fil12 {fill:black;fill-opacity:0.101961}
    .fil16 {fill:black;fill-rule:nonzero;fill-opacity:0.101961}
    .fil3 {fill:black;fill-opacity:0.200000}
    .fil11 {fill:#5A98D0;fill-opacity:0.400000}
    .fil7 {fill:url(#id3)}
   ]]>
  </style>
   <mask id="id0">
  <linearGradient id="id1" gradientUnits="userSpaceOnUse" x1="557.252" y1="458.71" x2="2236.4" y2="640.389">
   <stop offset="0" style="stop-opacity:1; stop-color:white"/>
   <stop offset="0.129412" style="stop-opacity:0.8; stop-color:white"/>
   <stop offset="0.968627" style="stop-opacity:1; stop-color:white"/>
   <stop offset="1" style="stop-opacity:1; stop-color:white"/>
  </linearGradient>
    <rect style="fill:url(#id1)" x="606.48" y="-0.403509" width="1580.69" height="1099.91"/>
   </mask>
   <clipPath id="id2">
    <path d="M1256.66 470.293l278.692 0 0 -278.692 -278.692 0 0 278.692 0 0z"/>
   </clipPath>
  <linearGradient id="id3" gradientUnits="userSpaceOnUse" x1="590.836" y1="462.345" x2="2202.82" y2="636.754">
   <stop offset="0" style="stop-color:white"/>
   <stop offset="0.129412" style="stop-color:white"/>
   <stop offset="0.968627" style="stop-color:white"/>
   <stop offset="1" style="stop-color:white"/>
  </linearGradient>
 </defs>
 <g id="Layer_x0020_1">
  <metadata id="CorelCorpID_0Corel-Layer"/>
  <g id="_347835536">
   <path id="_386151056" class="fil0" d="M282.28 1149.94c-31.6972,-32.9236 -60.502,-94.9846 -70.9424,-121.895 30.4994,-14.7572 98.2794,-48.4656 125.403,-65.2975 27.123,-16.8277 78.5657,-55.0117 100.896,-71.9983 13.0256,11.7441 50.9343,40.7099 98.3461,62.6339 121.763,57.4879 191.314,131.735 215.343,198.215 19.2308,53.1806 -59.5393,131.911 -104.293,164.894 -25.9273,-44.0662 -41.5286,-61.8841 -72.2716,-103.853l10.4489 -48.7515 -61.4096 -18.2416c9.07843,12.1085 38.8258,51.9775 85.2072,114.612 83.6874,104.597 112.668,283.317 116.701,359.603 -15.6151,3.42612 -54.0575,9.75094 -82.9227,7.62643 -3.40918,-37.0508 -49.8339,-119.366 -94.1617,-192.241 -9.01912,10.7888 -21.5194,23.6905 -28.7974,24.3588 -36.8464,-10.9466 -48.2601,-59.2745 -49.3626,-82.0744l27.8474 -23.322c-3.81798,-6.09606 -7.38919,-11.814 -10.6586,-17.084 -45.5828,-73.4588 -165.747,-146.03 -205.373,-187.184l0.00105908 0 0 0 -0.00105908 -0.00105908 0 -0.00105908 0 0z"/>
   <path id="_386150120" class="fil1" d="M678.845 1697.2l-8.9238 -29.74 47.5865 -8.9238c22.7977,11.8977 66.6171,38.0675 59.4789,47.5865 -2.37763,4.75738 -66.4223,-3.96837 -98.1427,-8.9238l0 0.00105908 0.00105908 0 0 0 0 0 0 0z"/>
   <path id="_386151440" class="fil1" d="M437.95 1417.63l26.7672 44.6105c-1.9826,30.7334 -8.32754,91.0045 -17.8455,86.2461 -9.51688,-4.75844 -39.654,-81.2907 -53.5322,-118.96l44.6116 -11.8956 0 -0.00105908 -0.00105908 0 0 0 0 0 0 0z"/>
   <path id="_386151416" class="fil2" d="M448.936 883.737c-86.4526,66.6892 -265.399,186.281 -289.583,131.168 -30.2314,-68.8973 -24.3069,-69.4438 -41.0224,-88.8101 -16.7133,-19.3727 -20.7993,-63.7957 -28.3568,-81.0206 -3.79892,-8.65479 -34.419,-46.5264 -58.9017,-93.1375 0,0 -0.73606,-1.34927 -1.97836,-3.81586 -17.3805,-33.917 -31.1073,-72.082 -28.8504,-106.841 1.72842,-50.929 40.4706,-83.7806 40.4706,-83.7806 23.09,-24.6151 44.7461,-28.7498 52.2454,-28.0857l0.138739 0.093199c18.0541,12.2779 44.744,30.4263 54.1941,29.5557 9.4777,-0.869504 22.9937,-18.7637 31.9153,-27.6833 45.2417,4.79763 59.0553,-6.78976 94.4169,-1.96565 43.6097,5.94779 161.352,67.3945 253.55,-96.1782 9.15468,2.14358 29.7993,10.2847 44.6063,8.92274 -50.5562,148.702 -95.1667,194.987 -136.804,209.558 -31.9567,11.186 -57.131,14.305 -77.0194,14.1016 -3.64959,19.4002 -8.49805,51.287 -16.582,83.806 16.6191,30.4242 34.1881,58.3743 47.9869,70.9032 35.8456,32.5413 76.3236,50.5032 59.5753,63.2133l-0.00105908 -0.00317724 0 0 0 0 0 0z"/>
   <path id="_386151392" class="fil3" d="M447.24 1060.09l79.7963 88.2276 58.1773 15.5536 -3.47378 27.2024c13.3539,-17.1539 30.4718,-58.351 -7.89861,-85.8839 -38.3726,-27.5276 -100.387,-41.535 -126.6,-45.0998l0 0 -0.00105908 0 0 0 0 0z"/>
   <path id="_386152160" class="fil3" d="M498.172 1354.07l49.3616 82.0712 -8.06806 9.69905c-7.28435,-14.2616 -26.4145,-27.4376 -42.5856,-40.8773 -12.9367,-10.756 -15.6479,-29.4265 -15.3863,-37.4141l16.6784 -13.4789 0 0 0 0z"/>
   <path id="_386152016" class="fil3" d="M268.829 906.275c-84.4478,-8.95875 -187.149,-97.2722 -227.94,-140.311 94.3301,83.9066 203.944,106.679 238.665,94.526 27.7743,-9.72341 49.0714,-82.1072 60.2574,-112.007l22.5923 38.6786c3.99802,43.436 -9.12503,128.068 -93.5739,119.114l0.00105908 0 -0.00105908 -0.00105908 0 0 0 0.00105908z"/>
   <path id="_386152184" class="fil3" d="M238.495 738.827c-18.7235,3.424 -67.1753,-37.6248 -88.916,-57.526 80.0314,58.3436 80.1914,28.5189 181.309,-42.8567 -4.39094,6.3746 -47.5844,92.1939 -92.393,100.384l0 -0.00105908 0 0 0 -0.00105908 0 0 0 0.00105908z"/>
   <path id="_386152352" class="fil4" d="M360.625 653.312c-10.1883,-2.0472 -19.0571,-5.4945 -29.74,-14.8695l8.92062 -20.8183c-0.991298,-4.95861 -2.37763,-16.0609 0,-20.8183 2.38081,-4.75844 11.8966,-9.91404 14.8705,-11.8966l-2.97389 14.8716 14.8705 -17.8455 23.7922 20.8194 -2.97495 20.8183 -17.8423 8.92274 -8.9238 20.8162 0.00105908 0 0 0 0 0 0 0 0 0z"/>
   <path id="_386152808" class="fil5" d="M78.0891 468.92c4.75844,9.519 17.8444,29.7432 23.7912,38.6627 3.96625,-7.92827 9.519,-25.5768 0,-32.7139 -9.51477,-7.13713 -17.8423,-18.8347 -20.8162,-23.7912 2.97389,-1.9826 10.7073,-5.94885 17.8444,-5.94885 -4.75844,-35.6878 19.826,-48.5768 32.7139,-50.5604l50.5562 -2.97178 2.97495 14.8684c18.8378,-17.8423 52.9402,-56.505 38.6627,-68.4017 -17.8412,-14.8716 -71.3766,23.7912 -107.064,23.7912 -35.6888,0 -50.5604,17.8455 -59.48,35.6888 -8.92274,17.8455 14.8684,59.4821 20.8183,71.3756l0 0.00105908 -0.00105908 0 0 0 0 0 0 0z"/>
   <path id="_386152424" class="fil4" d="M146.495 561.119c-9.51794,0 -36.6801,-18.8347 -53.5343,-29.7411 7.93144,-3.96519 11.8966,-19.0348 11.8966,-23.7933 0,-5.94885 5.94885,-29.74 0,-32.715 -5.94885,-2.97389 -23.7912,-14.8674 -23.7912,-20.8162 0,-4.76056 11.8935,-5.94991 17.8423,-5.94991 -1.98154,-9.91298 -2.37869,-32.7128 11.8977,-44.6116 14.2753,-11.8945 53.5312,-12.8848 71.3766,-11.8945 0.991298,3.96625 4.75632,20.8183 11.8935,56.5061 7.13925,35.6888 -8.91956,52.543 -17.8423,56.5072l2.97389 26.7672c-6.93909,8.92168 -23.197,29.7411 -32.7139,29.7411l0.00105908 0 0 0z"/>
   <path id="_386153264" class="fil6" d="M717.51 1658.53l-2.97495 -35.6878c-21.0026,5.62583 -33.4807,6.62136 -56.5061,5.94885l11.8945 38.6627 47.5865 -8.9238 0 0 0 0 0 0 0 0z"/>
   <path id="_386153600" class="fil6" d="M464.718 1462.25l35.6878 -11.8956c-15.9307,-18.3019 -21.2907,-28.7423 -26.7661,-47.5865l-35.6888 14.8716 26.7672 44.6116 0 -0.00105908 0 0z"/>
   <path id="_386152544" class="fil4" d="M577.733 412.417l-5.94885 29.74c-9.51477,2.37869 -34.6965,-4.95649 -44.6116,-8.92274 2.97495,-8.92062 12.4908,-32.7139 14.8716,-44.6095 2.37869,-11.8956 24.7835,-24.7856 35.6888,-29.7432l11.8935 0 -11.8935 20.8204 0 32.7139 0 0.00105908 0 0 0 0 0 0z"/>
  </g>
  <path class="fil7" style="mask:url(#id0)" d="M652.824 0l1488.01 0c16.0292,0 29.0294,13.0002 29.0294,29.0304l0 1041.04c0,16.0281 -13.0002,29.0272 -29.0294,29.0272l-1488.01 0.00317724c-16.0281,-0.00317724 -29.0272,-13.0023 -29.0272,-29.0325l-0.00211816 -1041.03c0.00211816,-16.0302 13.0013,-29.0304 29.0315,-29.0304z"/>
  <path class="fil2" d="M623.793 29.0304c0,-16.0323 12.9981,-29.0304 29.0304,-29.0304l417.937 0 0 1099.1 -417.937 0c-16.0323,0 -29.0304,-12.996 -29.0304,-29.0304l0 -1041.04z"/>
  <circle class="fil8" cx="693.467" cy="69.6731" r="23.2236"/>
  <circle class="fil9" cx="768.946" cy="69.6731" r="23.2236"/>
  <circle class="fil10" cx="838.619" cy="69.6731" r="23.2236"/>
  <path class="fil11" d="M676.049 615.445l336.752 0 0 40.6422 -336.752 0 0 -40.6422zm0 81.2854l336.752 0 0 40.6432 -336.752 0 0 -40.6432zm226.436 92.8961l-226.436 0 0 40.6432 226.436 0 0 -40.6432z"/>
  <path class="fil12" d="M1703.73 145.153l336.754 0 0 40.64 -336.754 0 0 -40.64zm0 81.2833l336.754 0 0 40.6432 -336.754 0 0 -40.6432zm226.437 92.8982l-226.437 0 0 40.6411 226.437 0 0 -40.6411z"/>
  <path class="fil13" d="M1198.6 104.51l400.619 0c16.0302,0 29.0294,12.9991 29.0294,29.0294l0 389.008c0,16.0302 -12.9991,29.0304 -29.0294,29.0304l-400.619 0c-16.0281,0 -29.0283,-13.0002 -29.0283,-29.0304l-0.00423632 -389.008c0.00423632,-16.0302 13.0044,-29.0294 29.0347,-29.0294z"/>
  <g style="clip-path:url(#id2)">
   <g id="_347834144">
    <polygon id="_347833952" class="fil2" points="1349.55,249.662 1349.55,412.232 1477.29,330.945 "/>
   </g>
  </g>
  <polyline class="fil14" points="1256.66,470.293 1535.35,470.293 1535.35,191.6 1256.66,191.6 1256.66,470.293 "/>
  <path class="fil15" d="M1198.6 627.057l836.076 0c16.0302,-0.00317724 29.0294,12.997 29.0294,29.0272l0 307.724c0,16.0281 -12.9991,29.0283 -29.0294,29.0283l-836.076 0.00211816c-16.0281,-0.00211816 -29.0283,-13.0023 -29.0283,-29.0325l-0.00423632 -307.72c0.00423632,-16.0323 13.0044,-29.0325 29.0347,-29.0325z"/>
  <g>
   <path class="fil16" d="M1244.67 883.538l6.55782 9.58467 -0.251002 0.162039 -0.256297 0.148271 -0.260533 0.133444 -0.26477 0.119676 -0.267947 0.104849 -0.272183 0.0910808 -0.274301 0.0773128 -0.27642 0.0624857 -0.277479 0.0497767 -0.279597 0.0349496 -0.279597 0.0222407 -0.279597 0.00847263 -0.279597 -0.0052954 -0.278538 -0.0180043 -0.27642 -0.0317724 -0.275361 -0.0444813 -0.272183 -0.0582494 -0.270065 -0.0709583 -0.265829 -0.0836672 -0.262652 -0.0963762 -0.257356 -0.109085 -0.252061 -0.121794 -0.247825 -0.134503 -0.24147 -0.146153 -0.234056 -0.158862 -0.227702 -0.171571 -0.220288 -0.183221 -0.211816 -0.194871 -0.204402 -0.20758 -0.193811 -0.21817 -0.185339 -0.230879 -0.174748 -0.242529 -0.162039 -0.251002 -0.148271 -0.256297 -0.133444 -0.260533 -0.119676 -0.26477 -0.104849 -0.267947 -0.0910808 -0.272183 -0.0773128 -0.274301 -0.0624857 -0.27642 -0.0497767 -0.277479 -0.0349496 -0.279597 -0.0222407 -0.279597 -0.00847263 -0.279597 0.0052954 -0.279597 0.0180043 -0.278538 0.0317724 -0.27642 0.0455404 -0.275361 0.0571903 -0.272183 0.0709583 -0.270065 0.0836672 -0.265829 0.0963762 -0.262652 0.109085 -0.257356 0.121794 -0.252061 0.134503 -0.247825 0.146153 -0.24147 0.158862 -0.234056 0.171571 -0.227702 0.183221 -0.220288 0.194871 -0.211816 0.20758 -0.204402 0.21817 -0.193811 0.230879 -0.185339 0.242529 -0.174748zm186.171 -88.1059l0 11.6139 0 0 -9.38874 0.139798 -8.92062 0.411982 -8.47687 0.671456 -8.05536 0.92034 -7.65396 1.15546 -7.27376 1.37998 -6.91896 1.59285 -6.58535 1.79302 -6.2761 1.98366 -5.98803 2.16264 -5.72538 2.33421 -5.48603 2.49201 -5.26892 2.64346 -5.07405 2.78644 -4.90354 2.91882 -4.75527 3.04379 -4.62712 3.15923 -4.52015 3.2662 -4.43648 3.36364 -4.37082 3.4526 -4.32846 3.52991 -4.30516 3.59981 -4.30198 3.657 -4.32104 3.70466 -4.35811 3.73855 -4.41636 3.76291 -4.49685 3.77774 -4.5964 3.77668 -4.71502 3.76397 -4.85694 3.74067 -5.0158 3.70254 -5.19584 3.65065 -6.55782 -9.58467 4.96708 -3.48967 4.81246 -3.55215 4.68113 -3.60511 4.5731 -3.6517 4.48414 -3.68348 4.41636 -3.70995 4.36976 -3.72478 4.3454 -3.72796 4.34011 -3.7216 4.35705 -3.7036 4.39624 -3.67395 4.45343 -3.6337 4.53392 -3.57969 4.63347 -3.51402 4.75527 -3.43565 4.89824 -3.34351 5.05816 -3.23655 5.24032 -3.12005 5.44049 -2.98554 5.66078 -2.84045 5.89907 -2.68053 6.15537 -2.5079 6.43073 -2.32362 6.72303 -2.12345 7.03229 -1.91587 7.36378 -1.69453 7.7101 -1.46259 8.0776 -1.219 8.46204 -0.966939 8.86873 -0.703229 9.29342 -0.428927 9.73823 -0.146153 0 0zm0 11.6139l0 -11.6139 0.29866 0.00741355 0.295483 0.0222407 0.290188 0.0370678 0.285951 0.0508358 0.280656 0.0656629 0.275361 0.0783719 0.270065 0.0910808 0.263711 0.10379 0.257356 0.116499 0.249943 0.128149 0.243588 0.139798 0.236175 0.150389 0.226643 0.162039 0.220288 0.17263 0.210757 0.182162 0.201225 0.192752 0.192752 0.201225 0.182162 0.210757 0.17263 0.220288 0.162039 0.226643 0.150389 0.236175 0.139798 0.243588 0.128149 0.249943 0.116499 0.257356 0.10379 0.263711 0.0910808 0.270065 0.0783719 0.275361 0.0656629 0.280656 0.0508358 0.285951 0.0370678 0.290188 0.0222407 0.295483 0.00741355 0.29866 -0.00741355 0.29866 -0.0222407 0.295483 -0.0370678 0.290188 -0.0508358 0.285951 -0.0656629 0.280656 -0.0783719 0.275361 -0.0910808 0.270065 -0.10379 0.263711 -0.116499 0.257356 -0.128149 0.249943 -0.139798 0.243588 -0.150389 0.236175 -0.162039 0.226643 -0.17263 0.220288 -0.182162 0.210757 -0.192752 0.201225 -0.201225 0.192752 -0.210757 0.182162 -0.220288 0.17263 -0.226643 0.162039 -0.236175 0.150389 -0.243588 0.139798 -0.249943 0.128149 -0.257356 0.116499 -0.263711 0.10379 -0.270065 0.0910808 -0.275361 0.0783719 -0.280656 0.0656629 -0.285951 0.0508358 -0.290188 0.0370678 -0.295483 0.0222407 -0.29866 0.00741355zm177.084 46.4459l0 11.6139 0 0 -6.12465 -0.176866 -5.84506 -0.515772 -5.58452 -0.834554 -5.33988 -1.13216 -5.11641 -1.40222 -4.90989 -1.64899 -4.72879 -1.86716 -4.56569 -2.05779 -4.43225 -2.22089 -4.32316 -2.35963 -4.23949 -2.46977 -4.1876 -2.55768 -4.1643 -2.62228 -4.16642 -2.66464 -4.20243 -2.68688 -4.26385 -2.689 -4.35493 -2.67206 -4.47461 -2.63605 -4.625 -2.58203 -4.80292 -2.51108 -5.01156 -2.42211 -5.24986 -2.31409 -5.51886 -2.18912 -5.81964 -2.04508 -6.15007 -1.88304 -6.51122 -1.69982 -6.9052 -1.49754 -7.32671 -1.27301 -7.78211 -1.02942 -8.26294 -0.762537 -8.77553 -0.474467 -9.31884 -0.162039 0 -11.6139 9.72764 0.170512 9.20763 0.497767 8.71198 0.802782 8.24175 1.09085 7.79694 1.35562 7.37755 1.59921 6.98145 1.82268 6.60759 2.02284 6.26233 2.19971 5.93614 2.35433 5.63536 2.48354 5.36106 2.58945 5.10794 2.66994 4.8813 2.72607 4.68219 2.75678 4.50532 2.76526 4.35493 2.74619 4.23208 2.70595 4.13464 2.64346 4.06263 2.55874 4.01603 2.45389 3.99591 2.32786 4.0012 2.18382 4.03615 2.0239 4.09758 1.84809 4.18866 1.65534 4.31257 1.44776 4.47037 1.22641 4.65995 0.988121 4.88977 0.730765 5.15242 0.456463 5.45532 0.155685 0 0zm0 11.6139l0 -11.6139 0.29866 0.00741355 0.295483 0.0222407 0.290188 0.0370678 0.285951 0.0508358 0.280656 0.0656629 0.275361 0.0783719 0.270065 0.0910808 0.263711 0.10379 0.257356 0.116499 0.249943 0.128149 0.243588 0.139798 0.236175 0.150389 0.226643 0.162039 0.220288 0.17263 0.210757 0.182162 0.201225 0.192752 0.192752 0.201225 0.182162 0.210757 0.17263 0.220288 0.162039 0.226643 0.150389 0.236175 0.139798 0.243588 0.128149 0.249943 0.116499 0.257356 0.10379 0.263711 0.0910808 0.270065 0.0783719 0.275361 0.0656629 0.280656 0.0508358 0.285951 0.0370678 0.290188 0.0222407 0.295483 0.00741355 0.29866 -0.00741355 0.29866 -0.0222407 0.295483 -0.0370678 0.290188 -0.0508358 0.285951 -0.0656629 0.280656 -0.0783719 0.275361 -0.0910808 0.270065 -0.10379 0.263711 -0.116499 0.257356 -0.128149 0.249943 -0.139798 0.243588 -0.150389 0.236175 -0.162039 0.226643 -0.17263 0.220288 -0.182162 0.210757 -0.192752 0.201225 -0.201225 0.192752 -0.210757 0.182162 -0.220288 0.17263 -0.226643 0.162039 -0.236175 0.150389 -0.243588 0.139798 -0.249943 0.128149 -0.257356 0.116499 -0.263711 0.10379 -0.270065 0.0910808 -0.275361 0.0783719 -0.280656 0.0656629 -0.285951 0.0508358 -0.290188 0.0370678 -0.295483 0.0222407 -0.29866 0.00741355zm229.34 -124.832l0 11.6139 0 0 -7.1096 0.303956 -7.08948 0.890686 -7.08524 1.44352 -7.08524 1.96353 -7.08736 2.45177 -7.09053 2.90399 -7.09159 3.32233 -7.09053 3.69936 -7.09159 4.0425 -7.08736 4.34117 -7.08418 4.6017 -7.081 4.82199 -7.07677 5.00097 -7.07359 5.13759 -7.07147 5.23397 -7.07041 5.2901 -7.07253 5.30387 -7.07465 5.27421 -7.08206 5.20643 -7.09053 5.09523 -7.1043 4.94378 -7.12231 4.74891 -7.14455 4.5138 -7.17314 4.23632 -7.20703 3.91542 -7.24834 3.55109 -7.29706 3.13911 -7.34895 2.68371 -7.41144 2.17641 -7.47286 1.62039 -7.53535 1.01036 -7.58936 0.349496 0 -11.6139 6.54723 -0.300778 6.56947 -0.883272 6.60865 -1.43399 6.6489 -1.954 6.69232 -2.44435 6.73362 -2.89976 6.77387 -3.31809 6.80882 -3.69936 6.84483 -4.04356 6.87554 -4.34434 6.90837 -4.60699 6.93697 -4.82728 6.9698 -5.00839 6.99945 -5.14501 7.03017 -5.24244 7.06406 -5.29751 7.10007 -5.31128 7.13713 -5.28269 7.17738 -5.21385 7.2208 -5.10264 7.2674 -4.94908 7.3193 -4.75421 7.37543 -4.51697 7.43685 -4.23738 7.50358 -3.91542 7.57665 -3.54686 7.65396 -3.13487 7.73763 -2.67629 7.82448 -2.16688 7.91344 -1.61086 8.0024 -1.00295 8.08183 -0.346319 0 0zm0 11.6139l0 -11.6139 0.29866 0.00741355 0.295483 0.0222407 0.290188 0.0370678 0.285951 0.0508358 0.280656 0.0656629 0.275361 0.0783719 0.270065 0.0910808 0.263711 0.10379 0.257356 0.116499 0.249943 0.128149 0.243588 0.139798 0.236175 0.150389 0.226643 0.162039 0.220288 0.17263 0.210757 0.182162 0.201225 0.192752 0.192752 0.201225 0.182162 0.210757 0.17263 0.220288 0.162039 0.226643 0.150389 0.236175 0.139798 0.243588 0.128149 0.249943 0.116499 0.257356 0.10379 0.263711 0.0910808 0.270065 0.0783719 0.275361 0.0656629 0.280656 0.0508358 0.285951 0.0370678 0.290188 0.0222407 0.295483 0.00741355 0.29866 -0.00741355 0.29866 -0.0222407 0.295483 -0.0370678 0.290188 -0.0508358 0.285951 -0.0656629 0.280656 -0.0783719 0.275361 -0.0910808 0.270065 -0.10379 0.263711 -0.116499 0.257356 -0.128149 0.249943 -0.139798 0.243588 -0.150389 0.236175 -0.162039 0.226643 -0.17263 0.220288 -0.182162 0.210757 -0.192752 0.201225 -0.201225 0.192752 -0.210757 0.182162 -0.220288 0.17263 -0.226643 0.162039 -0.236175 0.150389 -0.243588 0.139798 -0.249943 0.128149 -0.257356 0.116499 -0.263711 0.10379 -0.270065 0.0910808 -0.275361 0.0783719 -0.280656 0.0656629 -0.285951 0.0508358 -0.290188 0.0370678 -0.295483 0.0222407 -0.29866 0.00741355zm145.539 49.3647l-0.773128 11.5863 -4.47461 -0.478704 -4.33905 -0.815491 -4.20031 -1.12368 -4.07216 -1.40222 -3.95142 -1.6511 -3.8434 -1.86822 -3.75655 -2.06097 -3.68348 -2.22618 -3.63158 -2.36492 -3.59557 -2.48248 -3.58181 -2.57674 -3.58392 -2.65193 -3.60405 -2.70595 -3.64111 -2.73772 -3.69725 -2.75255 -3.7682 -2.74937 -3.85293 -2.72395 -3.95672 -2.68053 -4.07534 -2.62016 -4.20878 -2.54179 -4.36129 -2.44435 -4.5265 -2.32997 -4.71184 -2.19653 -4.91201 -2.04614 -5.1323 -1.87881 -5.36847 -1.69241 -5.62371 -1.48589 -5.89907 -1.26348 -6.19138 -1.01778 -6.50275 -0.753005 -6.83424 -0.468113 -7.18373 -0.159921 0 -11.6139 7.7048 0.17263 7.37225 0.504122 7.04923 0.81655 6.73998 1.10886 6.4392 1.37786 6.15537 1.62569 5.88107 1.85339 5.61947 2.05673 5.37165 2.23678 5.13547 2.39564 4.91201 2.52696 4.70443 2.63711 4.51168 2.72183 4.33163 2.78538 4.16854 2.82456 4.01815 2.84045 3.88258 2.83198 3.76503 2.80338 3.66018 2.75255 3.56804 2.67841 3.49072 2.58203 3.42718 2.4666 3.37529 2.32997 3.33504 2.17429 3.30856 1.99954 3.29268 1.80679 3.29056 1.60133 3.30327 1.3821 3.3308 1.14804 3.38058 0.905513 3.45366 0.650275 3.55956 0.381268zm-0.773128 11.5863l0.773128 -11.5863 0.297601 0.0275361 0.292306 0.0413041 0.28807 0.0571903 0.281715 0.0698992 0.275361 0.0826082 0.270065 0.0963762 0.262652 0.109085 0.256297 0.121794 0.248884 0.133444 0.24147 0.144035 0.232997 0.155685 0.224525 0.166275 0.217111 0.176866 0.20652 0.186398 0.198048 0.196989 0.188516 0.204402 0.178984 0.213934 0.168394 0.222407 0.156744 0.230879 0.146153 0.238293 0.135562 0.244647 0.122853 0.252061 0.111203 0.258415 0.0995534 0.263711 0.0857854 0.270065 0.0730765 0.275361 0.0603675 0.280656 0.0455404 0.283833 0.0317724 0.289129 0.0180043 0.292306 0.00317724 0.295483 -0.0127089 0.29866 -0.0275361 0.297601 -0.0413041 0.292306 -0.0571903 0.28807 -0.0698992 0.281715 -0.0826082 0.275361 -0.0963762 0.270065 -0.109085 0.262652 -0.121794 0.256297 -0.133444 0.248884 -0.144035 0.24147 -0.155685 0.232997 -0.166275 0.224525 -0.176866 0.217111 -0.186398 0.20652 -0.196989 0.198048 -0.204402 0.188516 -0.213934 0.178984 -0.222407 0.168394 -0.230879 0.156744 -0.238293 0.146153 -0.244647 0.135562 -0.252061 0.122853 -0.258415 0.111203 -0.263711 0.0995534 -0.270065 0.0857854 -0.275361 0.0730765 -0.280656 0.0603675 -0.283833 0.0455404 -0.289129 0.0317724 -0.292306 0.0180043 -0.295483 0.00317724 -0.29866 -0.0127089z"/>
  </g>
  <g>
   <path class="fil17" d="M1241.76 886.441l6.55782 9.58467 -0.251002 0.162039 -0.256297 0.148271 -0.260533 0.133444 -0.26477 0.119676 -0.267947 0.104849 -0.272183 0.0910808 -0.274301 0.0773128 -0.27642 0.0624857 -0.277479 0.0497767 -0.279597 0.0349496 -0.279597 0.0222407 -0.279597 0.00847263 -0.279597 -0.0052954 -0.278538 -0.0180043 -0.27642 -0.0317724 -0.275361 -0.0444813 -0.272183 -0.0582494 -0.270065 -0.0709583 -0.265829 -0.0836672 -0.262652 -0.0963762 -0.257356 -0.109085 -0.252061 -0.121794 -0.247825 -0.134503 -0.24147 -0.146153 -0.234056 -0.158862 -0.227702 -0.171571 -0.220288 -0.183221 -0.211816 -0.194871 -0.204402 -0.20758 -0.193811 -0.21817 -0.185339 -0.230879 -0.174748 -0.242529 -0.162039 -0.251002 -0.148271 -0.256297 -0.133444 -0.260533 -0.119676 -0.26477 -0.104849 -0.267947 -0.0910808 -0.272183 -0.0773128 -0.274301 -0.0624857 -0.27642 -0.0497767 -0.277479 -0.0349496 -0.279597 -0.0222407 -0.279597 -0.00847263 -0.279597 0.0052954 -0.279597 0.0180043 -0.278538 0.0317724 -0.27642 0.0455404 -0.275361 0.0571903 -0.272183 0.0709583 -0.270065 0.0836672 -0.265829 0.0963762 -0.262652 0.109085 -0.257356 0.121794 -0.252061 0.134503 -0.247825 0.146153 -0.24147 0.158862 -0.234056 0.171571 -0.227702 0.183221 -0.220288 0.194871 -0.211816 0.20758 -0.204402 0.21817 -0.193811 0.230879 -0.185339 0.242529 -0.174748zm177.461 -149.068l0 11.6139 0 0 -9.14938 0.303956 -8.6262 0.888567 -8.1369 1.43611 -7.68044 1.94976 -7.25893 2.43165 -6.86601 2.88175 -6.50698 3.30539 -6.17761 3.70254 -5.87471 4.0711 -5.59723 4.41424 -5.34517 4.73091 -5.11429 5.02109 -4.9046 5.27739 -4.7182 5.50721 -4.5498 5.7042 -4.40365 5.86942 -4.28186 6.00286 -4.17913 6.10347 -4.0997 6.17019 -4.04462 6.20514 -4.01073 6.2062 -4.00332 6.17549 -4.01921 6.11089 -4.06051 6.01451 -4.12935 5.88318 -4.22361 5.72009 -4.34646 5.52522 -4.49897 5.29434 -4.68007 5.02745 -4.89083 4.72561 -5.13124 4.38353 -5.39389 3.99485 -6.55782 -9.58467 4.7182 -3.49496 4.55298 -3.89 4.41212 -4.26597 4.29033 -4.61229 4.1876 -4.9279 4.10075 -5.21385 4.03509 -5.46591 3.98955 -5.68408 3.96307 -5.86836 3.95778 -6.01981 3.9779 -6.13736 4.01921 -6.21891 4.08487 -6.26657 4.17383 -6.28034 4.28715 -6.26233 4.42801 -6.2062 4.59217 -6.11936 4.78492 -5.99651 5.00203 -5.83976 5.24774 -5.64595 5.51886 -5.41507 5.8154 -5.14818 6.13948 -4.83999 6.48686 -4.49473 6.85542 -4.10711 7.24622 -3.6803 7.65396 -3.21219 8.07866 -2.70489 8.51711 -2.16158 8.97358 -1.58438 9.44381 -0.971176 9.92675 -0.331492 0 0zm0 11.6139l0 -11.6139 0.29866 0.00741355 0.295483 0.0222407 0.290188 0.0370678 0.285951 0.0508358 0.280656 0.0656629 0.275361 0.0783719 0.270065 0.0910808 0.263711 0.10379 0.257356 0.116499 0.249943 0.128149 0.243588 0.139798 0.236175 0.150389 0.226643 0.162039 0.220288 0.17263 0.210757 0.182162 0.201225 0.192752 0.192752 0.201225 0.182162 0.210757 0.17263 0.220288 0.162039 0.226643 0.150389 0.236175 0.139798 0.243588 0.128149 0.249943 0.116499 0.257356 0.10379 0.263711 0.0910808 0.270065 0.0783719 0.275361 0.0656629 0.280656 0.0508358 0.285951 0.0370678 0.290188 0.0222407 0.295483 0.00741355 0.29866 -0.00741355 0.29866 -0.0222407 0.295483 -0.0370678 0.290188 -0.0508358 0.285951 -0.0656629 0.280656 -0.0783719 0.275361 -0.0910808 0.270065 -0.10379 0.263711 -0.116499 0.257356 -0.128149 0.249943 -0.139798 0.243588 -0.150389 0.236175 -0.162039 0.226643 -0.17263 0.220288 -0.182162 0.210757 -0.192752 0.201225 -0.201225 0.192752 -0.210757 0.182162 -0.220288 0.17263 -0.226643 0.162039 -0.236175 0.150389 -0.243588 0.139798 -0.249943 0.128149 -0.257356 0.116499 -0.263711 0.10379 -0.270065 0.0910808 -0.275361 0.0783719 -0.280656 0.0656629 -0.285951 0.0508358 -0.290188 0.0370678 -0.295483 0.0222407 -0.29866 0.00741355zm191.602 84.1851l0 11.6139 0 0 -6.3746 -0.299719 -6.15749 -0.877977 -5.94037 -1.41175 -5.7275 -1.90105 -5.52733 -2.34056 -5.34835 -2.73348 -5.19055 -3.07768 -5.05816 -3.38058 -4.95331 -3.64111 -4.876 -3.86246 -4.82622 -4.0478 -4.80186 -4.19925 -4.80292 -4.31045 -4.82834 -4.39412 -4.87812 -4.43754 -4.95119 -4.45025 -5.04545 -4.42801 -5.16195 -4.37294 -5.30175 -4.28715 -5.46061 -4.16536 -5.64277 -4.01391 -5.84506 -3.82857 -6.07064 -3.61464 -6.31741 -3.36787 -6.59065 -3.09145 -6.88719 -2.78538 -7.20809 -2.44753 -7.55759 -2.07791 -7.93356 -1.67546 -8.33813 -1.24124 -8.76812 -0.772069 -9.23093 -0.263711 0 -11.6139 9.89815 0.284892 9.45864 0.831377 9.02865 1.34291 8.61984 1.82162 8.22481 2.26007 7.84778 2.66358 7.48663 3.02685 7.14561 3.35199 6.82365 3.63688 6.51969 3.88152 6.24115 4.08699 5.98168 4.25538 5.74656 4.38141 5.53263 4.47355 5.342 4.52545 5.17466 4.54027 5.02745 4.52015 4.90354 4.46084 4.80081 4.36658 4.7182 4.23632 4.65571 4.07004 4.61017 3.86776 4.58369 3.6337 4.57628 3.36364 4.58158 3.06286 4.60805 2.73454 4.64936 2.37763 4.71396 1.99742 4.80398 1.59603 4.92578 1.1724 5.08358 0.725469 5.28798 0.248884 0 0zm0 11.6139l0 -11.6139 0.29866 0.00741355 0.295483 0.0222407 0.290188 0.0370678 0.285951 0.0508358 0.280656 0.0656629 0.275361 0.0783719 0.270065 0.0910808 0.263711 0.10379 0.257356 0.116499 0.249943 0.128149 0.243588 0.139798 0.236175 0.150389 0.226643 0.162039 0.220288 0.17263 0.210757 0.182162 0.201225 0.192752 0.192752 0.201225 0.182162 0.210757 0.17263 0.220288 0.162039 0.226643 0.150389 0.236175 0.139798 0.243588 0.128149 0.249943 0.116499 0.257356 0.10379 0.263711 0.0910808 0.270065 0.0783719 0.275361 0.0656629 0.280656 0.0508358 0.285951 0.0370678 0.290188 0.0222407 0.295483 0.00741355 0.29866 -0.00741355 0.29866 -0.0222407 0.295483 -0.0370678 0.290188 -0.0508358 0.285951 -0.0656629 0.280656 -0.0783719 0.275361 -0.0910808 0.270065 -0.10379 0.263711 -0.116499 0.257356 -0.128149 0.249943 -0.139798 0.243588 -0.150389 0.236175 -0.162039 0.226643 -0.17263 0.220288 -0.182162 0.210757 -0.192752 0.201225 -0.201225 0.192752 -0.210757 0.182162 -0.220288 0.17263 -0.226643 0.162039 -0.236175 0.150389 -0.243588 0.139798 -0.249943 0.128149 -0.257356 0.116499 -0.263711 0.10379 -0.270065 0.0910808 -0.275361 0.0783719 -0.280656 0.0656629 -0.285951 0.0508358 -0.290188 0.0370678 -0.295483 0.0222407 -0.29866 0.00741355zm223.533 -168.379l0 11.6139 0 0 -6.9052 0.410923 -6.87131 1.20205 -6.86813 1.95824 -6.87131 2.67629 -6.87872 3.35516 -6.88401 3.98849 -6.88296 4.57416 -6.87978 5.10582 -6.86919 5.58452 -6.8586 6.00604 -6.84589 6.37036 -6.83424 6.67538 -6.82047 6.92638 -6.812 7.11595 -6.80458 7.2494 -6.80035 7.32459 -6.79929 7.34154 -6.80352 7.30447 -6.81306 7.20597 -6.82788 7.05453 -6.85012 6.84271 -6.87978 6.57794 -6.9179 6.25386 -6.96556 5.87365 -7.02593 5.43625 -7.09901 4.93849 -7.18797 4.38035 -7.2907 3.75549 -7.41038 3.05968 -7.53641 2.28867 -7.66667 1.43187 -7.77258 0.495649 0 -11.6139 6.33012 -0.404568 6.34282 -1.18829 6.38625 -1.94129 6.43814 -2.66147 6.48792 -3.34457 6.53346 -3.98214 6.56947 -4.57204 6.60018 -5.10794 6.62666 -5.58982 6.6489 -6.01239 6.67008 -6.37672 6.69126 -6.68597 6.7135 -6.93591 6.7368 -7.12548 6.76328 -7.25999 6.79293 -7.33518 6.82576 -7.35213 6.86601 -7.31506 6.90731 -7.21551 6.95815 -7.06406 7.01428 -6.8533 7.07888 -6.58429 7.14878 -6.26022 7.23351 -5.87895 7.32671 -5.43837 7.43156 -4.93637 7.55123 -4.374 7.6815 -3.7449 7.82659 -3.04485 7.97592 -2.27172 8.12314 -1.41811 8.25234 -0.489295 0 0zm0 11.6139l0 -11.6139 0.29866 0.00741355 0.295483 0.0222407 0.290188 0.0370678 0.285951 0.0508358 0.280656 0.0656629 0.275361 0.0783719 0.270065 0.0910808 0.263711 0.10379 0.257356 0.116499 0.249943 0.128149 0.243588 0.139798 0.236175 0.150389 0.226643 0.162039 0.220288 0.17263 0.210757 0.182162 0.201225 0.192752 0.192752 0.201225 0.182162 0.210757 0.17263 0.220288 0.162039 0.226643 0.150389 0.236175 0.139798 0.243588 0.128149 0.249943 0.116499 0.257356 0.10379 0.263711 0.0910808 0.270065 0.0783719 0.275361 0.0656629 0.280656 0.0508358 0.285951 0.0370678 0.290188 0.0222407 0.295483 0.00741355 0.29866 -0.00741355 0.29866 -0.0222407 0.295483 -0.0370678 0.290188 -0.0508358 0.285951 -0.0656629 0.280656 -0.0783719 0.275361 -0.0910808 0.270065 -0.10379 0.263711 -0.116499 0.257356 -0.128149 0.249943 -0.139798 0.243588 -0.150389 0.236175 -0.162039 0.226643 -0.17263 0.220288 -0.182162 0.210757 -0.192752 0.201225 -0.201225 0.192752 -0.210757 0.182162 -0.220288 0.17263 -0.226643 0.162039 -0.236175 0.150389 -0.243588 0.139798 -0.249943 0.128149 -0.257356 0.116499 -0.263711 0.10379 -0.270065 0.0910808 -0.275361 0.0783719 -0.280656 0.0656629 -0.285951 0.0508358 -0.290188 0.0370678 -0.295483 0.0222407 -0.29866 0.00741355zm151.345 113.231l-0.773128 11.5863 -4.97873 -0.755123 -4.77962 -1.53143 -4.5498 -2.20183 -4.33481 -2.77691 -4.15794 -3.27467 -4.02238 -3.71419 -3.92283 -4.10287 -3.85611 -4.44813 -3.8148 -4.75421 -3.79786 -5.0158 -3.80209 -5.24032 -3.82328 -5.42354 -3.85928 -5.56334 -3.9133 -5.66078 -3.98108 -5.71585 -4.06157 -5.72962 -4.15265 -5.69785 -4.25856 -5.62265 -4.37611 -5.50509 -4.50003 -5.342 -4.63877 -5.13653 -4.78386 -4.88765 -4.93849 -4.59746 -5.10052 -4.26703 -5.27315 -3.89423 -5.45532 -3.48967 -5.64595 -3.04697 -5.85459 -2.57144 -6.08123 -2.06203 -6.33117 -1.52084 -6.60654 -0.943639 -6.91896 -0.324078 0 -11.6139 8.00346 0.374914 7.69527 1.09827 7.37755 1.77078 7.06194 2.39458 6.74845 2.96119 6.44238 3.47484 6.14795 3.93024 5.86836 4.33481 5.60676 4.68854 5.36212 4.98932 5.13547 5.24774 4.92895 5.45638 4.73726 5.62159 4.56251 5.74021 4.40471 5.8154 4.26279 5.84612 4.13359 5.83129 4.01921 5.77304 3.91965 5.66925 3.82963 5.51886 3.75338 5.32399 3.6856 5.08146 3.62841 4.79339 3.57545 4.45555 3.52779 4.0711 3.47802 3.64111 3.42294 3.16347 3.35728 2.6477 3.27997 2.10545 3.18995 1.55155 3.1084 1.00189 3.08933 0.47129zm-0.773128 11.5863l0.773128 -11.5863 0.297601 0.0275361 0.292306 0.0413041 0.28807 0.0571903 0.281715 0.0698992 0.275361 0.0826082 0.270065 0.0963762 0.262652 0.109085 0.256297 0.121794 0.248884 0.133444 0.24147 0.144035 0.232997 0.155685 0.224525 0.166275 0.217111 0.176866 0.20652 0.186398 0.198048 0.196989 0.188516 0.204402 0.178984 0.213934 0.168394 0.222407 0.156744 0.230879 0.146153 0.238293 0.135562 0.244647 0.122853 0.252061 0.111203 0.258415 0.0995534 0.263711 0.0857854 0.270065 0.0730765 0.275361 0.0603675 0.280656 0.0455404 0.283833 0.0317724 0.289129 0.0180043 0.292306 0.00317724 0.295483 -0.0127089 0.29866 -0.0275361 0.297601 -0.0413041 0.292306 -0.0571903 0.28807 -0.0698992 0.281715 -0.0826082 0.275361 -0.0963762 0.270065 -0.109085 0.262652 -0.121794 0.256297 -0.133444 0.248884 -0.144035 0.24147 -0.155685 0.232997 -0.166275 0.224525 -0.176866 0.217111 -0.186398 0.20652 -0.196989 0.198048 -0.204402 0.188516 -0.213934 0.178984 -0.222407 0.168394 -0.230879 0.156744 -0.238293 0.146153 -0.244647 0.135562 -0.252061 0.122853 -0.258415 0.111203 -0.263711 0.0995534 -0.270065 0.0857854 -0.275361 0.0730765 -0.280656 0.0603675 -0.283833 0.0455404 -0.289129 0.0317724 -0.292306 0.0180043 -0.295483 0.00317724 -0.29866 -0.0127089z"/>
  </g>
  <rect class="fil18" x="577.344" y="150.039" width="465.639" height="288.283" rx="33.6671" ry="33.6671"/>
  <path class="fil2" d="M718.689 279.483c-3.80951,-5.20326 -9.19598,-7.80435 -16.2579,-7.80435 -6.41061,0 -11.7971,2.32256 -16.349,7.05982 -4.55298,4.73832 -6.78234,10.4987 -6.78234,17.371 0,6.7834 2.22936,12.6359 6.78234,17.3731 4.55192,4.73832 9.9384,7.05982 16.349,7.05982 7.06194,0 12.4484,-2.60004 16.2579,-7.89543l0 6.68808 10.0337 0 0 -46.4491 -10.0337 0 0 6.597zm-25.1764 27.3115c-2.78644,-2.88175 -4.18019,-6.41061 -4.18019,-10.685 0,-4.27233 1.39375,-7.80329 4.18019,-10.5897 2.7875,-2.87964 6.31741,-4.27338 10.4987,-4.27338 4.18019,0 7.71115,1.39375 10.4976,4.27338 2.7875,2.78644 4.18019,6.31741 4.18019,10.5897 0,4.27444 -1.39269,7.80329 -4.18019,10.685 -2.78644,2.78644 -6.31741,4.18019 -10.4976,4.18019 -4.18124,0 -7.71115,-1.39375 -10.4987,-4.18019zm75.8873 -53.6953c-13.75,-0.836672 -20.9962,6.13101 -20.9962,18.859l0 0.927753 -7.05876 0 0 9.66198 7.05876 0 0 36.7871 10.0337 0 0 -36.7871 10.9625 0 0 -9.66198 -10.9625 0 0 -0.927753c0,-6.7834 3.62311,-9.84944 10.9625,-9.19704l0 -9.66198zm20.5493 19.7868l-10.0327 0 0 46.4491 10.0327 0 0 -23.4099c0,-4.73726 1.39375,-8.17609 4.27233,-10.2191 2.87858,-2.13722 6.22315,-3.06603 10.0327,-2.7875l0 -10.8683c-6.96662,0 -11.7971,2.87858 -14.305,8.63891l0 -7.80329zm35.8392 -8.82637c2.60004,-2.60004 2.60004,-6.50169 0.0921399,-9.00959 -2.5079,-2.6011 -6.597,-2.6011 -9.1049,0 -2.5079,2.5079 -2.5079,6.40955 0,9.00959 2.60322,2.50896 6.50486,2.50896 9.01276,0zm0.557076 55.2755l0 -46.4491 -10.0327 0 0 46.4491 10.0327 0zm53.081 -39.8521c-3.80951,-5.20326 -9.19704,-7.80435 -16.2558,-7.80435 -6.41061,0 -11.8003,2.32256 -16.3511,7.05982 -4.55086,4.73832 -6.78022,10.4987 -6.78022,17.371 0,6.7834 2.22936,12.6359 6.78022,17.3731 4.55086,4.73832 9.94052,7.05982 16.3511,7.05982 7.05876,0 12.4463,-2.60004 16.2558,-7.89543l0 6.68808 10.0327 0 0 -46.4491 -10.0327 0 0 6.597zm-25.1743 27.3115c-2.78644,-2.88175 -4.18019,-6.41061 -4.18019,-10.685 0,-4.27233 1.39375,-7.80329 4.18019,-10.5897 2.78644,-2.87964 6.31529,-4.27338 10.4955,-4.27338 4.18124,0 7.71115,1.39375 10.4987,4.27338 2.78644,2.78644 4.18019,6.31741 4.18019,10.5897 0,4.27444 -1.39375,7.80329 -4.18019,10.685 -2.7875,2.78644 -6.31741,4.18019 -10.4987,4.18019 -4.18019,0 -7.70904,-1.39375 -10.4955,-4.18019zm75.9773 -35.1159c-6.59383,0 -11.3321,2.4147 -14.3971,7.15196l0 -5.94461 -10.0327 0 0 46.4491 10.0327 0 0 -24.8979c0,-9.00959 4.73726,-13.3772 11.7971,-13.3772 6.40955,0 10.4033,3.80951 10.4033,10.7772l0 27.4979 10.0337 0 0 -28.521c0,-11.8892 -7.15196,-19.1354 -17.837,-19.1354z"/>
 </g>
</svg>
