<?xml version="1.0" encoding="UTF-8"?>
<!DOCTYPE svg PUBLIC "-//W3C//DTD SVG 1.1//EN" "http://www.w3.org/Graphics/SVG/1.1/DTD/svg11.dtd">
<!-- Creator: CorelDRAW -->
<svg xmlns="http://www.w3.org/2000/svg" xml:space="preserve" width="1920px" height="500px" style="shape-rendering:geometricPrecision; text-rendering:geometricPrecision; image-rendering:optimizeQuality; fill-rule:evenodd; clip-rule:evenodd"
viewBox="0 0 1732 451.042"
 xmlns:xlink="http://www.w3.org/1999/xlink">
 <defs>
  <style type="text/css">
   <![CDATA[
    .str0 {stroke:white;stroke-width:18.3333;stroke-linecap:round;stroke-linejoin:round;stroke-opacity:0.149020}
    .fil2 {fill:none}
    .fil1 {fill:none}
    .fil3 {fill:white;fill-opacity:0.200000}
    .fil0 {fill:url(#id1)}
   ]]>
  </style>
   <clipPath id="id0">
    <path d="M-0 0l1732 0 0 451.042 -1732 0 0 -451.042z"/>
   </clipPath>
  <linearGradient id="id1" gradientUnits="userSpaceOnUse" x1="-0" y1="225.521" x2="1732" y2="225.521">
   <stop offset="0" style="stop-color:#408ADC"/>
   <stop offset="1" style="stop-color:#93CBFB"/>
  </linearGradient>
 </defs>
 <g id="Layer_x0020_1">
  <metadata id="CorelCorpID_0Corel-Layer"/>
  <polygon class="fil0" points="-0,0 1732,0 1732,451.042 -0,451.042 "/>
  <g style="clip-path:url(#id0)">
   <g id="_412193120">
    <g>
     <path id="_4110417681" class="fil1 str0" d="M-109.423 215.065c84.3317,-23.8331 269.738,-61.9657 336.714,-23.8331 66.9765,38.1326 142.792,187.812 172.329,257.882l589.708 -16.4996c-91.8687,-51.7384 -277.315,-172.45 -284.16,-241.383 -6.84447,-68.9316 109.997,-168.05 169.274,-208.994l285.993 29.3319c3.86973,29.74 23.343,98.2646 70.2741,134.441 46.9332,36.1775 344.659,-60.7021 487.656,-113.663l17.7217 484.598c-54.3871,-79.0353 -180.763,-238.816 -251.16,-245.662 -70.3977,-6.84341 -280.701,88.8141 -377.048,137.497"/>
    </g>
   </g>
  </g>
  <polygon class="fil2" points="-0,0 1732,0 1732,451.042 -0,451.042 "/>
  <path class="fil3" d="M110.761 103.249c0,-8.99456 -7.2909,-16.2855 -16.2855,-16.2855 -8.99456,0 -16.2855,7.2909 -16.2855,16.2855 0,8.99456 7.2909,16.2855 16.2855,16.2855 8.99456,0 16.2855,-7.2909 16.2855,-16.2855z"/>
  <path class="fil3" d="M533.146 203.953c0,-8.99456 -7.2909,-16.2855 -16.2855,-16.2855 -8.99456,0 -16.2855,7.2909 -16.2855,16.2855 0,8.99456 7.2909,16.2855 16.2855,16.2855 8.99456,0 16.2855,-7.2909 16.2855,-16.2855z"/>
  <path class="fil3" d="M733.606 325.481c0,-8.99456 -7.2909,-16.2855 -16.2855,-16.2855 -8.99456,0 -16.2855,7.2909 -16.2855,16.2855 0,8.99456 7.2909,16.2855 16.2855,16.2855 8.99456,0 16.2855,-7.2909 16.2855,-16.2855z"/>
  <path class="fil3" d="M995.464 66.1316c0,-8.99456 -7.2909,-16.2855 -16.2855,-16.2855 -8.99456,0 -16.2855,7.2909 -16.2855,16.2855 0,8.99456 7.2909,16.2855 16.2855,16.2855 8.99456,0 16.2855,-7.2909 16.2855,-16.2855z"/>
  <path class="fil3" d="M1431.47 363.068c0,-8.99456 -7.2909,-16.2855 -16.2855,-16.2855 -8.99456,0 -16.2855,7.2909 -16.2855,16.2855 0,8.99456 7.2909,16.2855 16.2855,16.2855 8.99456,0 16.2855,-7.2909 16.2855,-16.2855z"/>
  <path class="fil3" d="M1688.31 126.271c0,-8.99456 -7.2909,-16.2855 -16.2855,-16.2855 -8.99456,0 -16.2855,7.2909 -16.2855,16.2855 0,8.99456 7.2909,16.2855 16.2855,16.2855 8.99456,0 16.2855,-7.2909 16.2855,-16.2855z"/>
 </g>
</svg>
