<?xml version="1.0" encoding="UTF-8"?>
<!DOCTYPE svg PUBLIC "-//W3C//DTD SVG 1.1//EN" "http://www.w3.org/Graphics/SVG/1.1/DTD/svg11.dtd">
<!-- Creator: CorelDRAW -->
<svg xmlns="http://www.w3.org/2000/svg" xml:space="preserve" width="1016px" height="1307px" style="shape-rendering:geometricPrecision; text-rendering:geometricPrecision; image-rendering:optimizeQuality; fill-rule:evenodd; clip-rule:evenodd"
viewBox="0 0 1015.35 1305.98"
 xmlns:xlink="http://www.w3.org/1999/xlink">
 <defs>
  <style type="text/css">
   <![CDATA[
    .str0 {stroke:#FEFEFE;stroke-width:2.36005}
    .str2 {stroke:#56CCF2;stroke-width:2.36005}
    .str3 {stroke:#6FCF97;stroke-width:2.36005}
    .str4 {stroke:#F2C94C;stroke-width:2.36005}
    .str1 {stroke:#F48989;stroke-width:2.36005}
    .fil8 {fill:none}
    .fil0 {fill:#FEFEFE}
    .fil2 {fill:#56CCF2}
    .fil5 {fill:#5A98D0}
    .fil3 {fill:#6FCF97}
    .fil13 {fill:#F2994A}
    .fil4 {fill:#F2C94C}
    .fil1 {fill:#F48989}
    .fil6 {fill:white}
    .fil7 {fill:black;fill-opacity:0.000000}
    .fil15 {fill:black;fill-opacity:0.200000}
    .fil10 {fill:url(#id2)}
    .fil11 {fill:url(#id3)}
    .fil9 {fill:url(#id4)}
    .fil12 {fill:url(#id5)}
    .fil14 {fill:url(#id6)}
   ]]>
  </style>
   <clipPath id="id0">
    <path d="M28.8811 324.248l75.2786 0 0 -56.4631 -75.2786 0 0 56.4631 0 0z"/>
   </clipPath>
   <clipPath id="id1">
    <path d="M28.8811 324.248l75.2786 0 0 -56.4631 -75.2786 0 0 56.4631 0 0z"/>
   </clipPath>
  <linearGradient id="id2" gradientUnits="userSpaceOnUse" x1="726.235" y1="713.576" x2="726.235" y2="971.468">
   <stop offset="0" style="stop-color:#5E199D"/>
   <stop offset="1" style="stop-color:#AF6CED"/>
  </linearGradient>
  <linearGradient id="id3" gradientUnits="userSpaceOnUse" x1="875.501" y1="918.326" x2="875.501" y2="1262.18">
   <stop offset="0" style="stop-color:#872727"/>
   <stop offset="1" style="stop-color:#EB5757"/>
  </linearGradient>
  <linearGradient id="id4" gradientUnits="userSpaceOnUse" x1="622.932" y1="659.309" x2="452.223" y2="770.972">
   <stop offset="0" style="stop-color:#FFCC80"/>
   <stop offset="1" style="stop-color:#FFF8E1"/>
  </linearGradient>
  <linearGradient id="id5" gradientUnits="userSpaceOnUse" xlink:href="#id4" x1="688.491" y1="703.528" x2="636.124" y2="723.723">
  </linearGradient>
  <linearGradient id="id6" gradientUnits="userSpaceOnUse" xlink:href="#id4" x1="675.377" y1="870.517" x2="647.363" y2="919.247">
  </linearGradient>
 </defs>
 <g id="Layer_x0020_1">
  <metadata id="CorelCorpID_0Corel-Layer"/>
  <rect class="fil0 str0" x="292.357" y="393.213" width="274.958" height="277.612" rx="23.6005" ry="23.6005"/>
  <rect class="fil1 str1" x="1.18003" y="247.243" width="133.212" height="97.8277" rx="14.9863" ry="14.9863"/>
  <rect class="fil2 str2" x="143.759" y="6.83471" width="133.212" height="97.8277" rx="14.9863" ry="14.9863"/>
  <rect class="fil3 str3" x="546.943" y="1.18003" width="129.411" height="97.8277" rx="14.9863" ry="14.9863"/>
  <rect class="fil4 str4" x="691.603" y="249.913" width="129.411" height="97.8277" rx="14.9863" ry="14.9863"/>
 </g>
 <g id="Layer_x0020_1_0">
  <metadata id="CorelCorpID_1Corel-Layer"/>
  <polygon class="fil5" points="417.821,581.411 417.821,543.77 442.916,543.77 442.916,581.411 474.281,581.411 474.281,531.223 493.1,531.223 430.368,474.766 367.637,531.223 386.456,531.223 386.456,581.411 "/>
  <polygon class="fil6" points="242.172,51.3417 229.091,51.3417 239.254,43.72 234.83,40.3793 220.213,51.3417 213.94,51.3417 213.94,46.6382 228.557,35.6745 224.103,32.3563 213.94,39.9781 213.94,30.1674 207.667,30.1674 207.667,39.9781 197.504,32.3563 193.05,35.6745 207.667,46.6382 207.667,51.3417 201.394,51.3417 186.777,40.3793 182.356,43.72 192.517,51.3417 179.439,51.3417 179.439,56.0489 192.517,56.0489 182.356,63.6707 186.777,67.0113 201.394,56.0489 207.667,56.0489 207.667,60.7536 193.05,71.7161 197.504,75.0343 207.667,67.409 207.667,77.2233 213.94,77.2233 213.94,67.409 224.103,75.0343 228.557,71.7161 213.94,60.7536 213.94,56.0489 220.213,56.0489 234.83,67.0113 239.254,63.6707 229.091,56.0489 242.172,56.0489 "/>
  <path class="fil6" d="M784.808 288.958c0,-11.766 -12.546,-21.1732 -28.2274,-21.1732 -15.6849,0 -28.2309,9.40835 -28.2309,21.1732 0,7.2902 5.01747,13.8795 12.546,17.6449l0 5.88243c0,3.05745 2.50874,5.64288 6.27302,6.5869l0 0.47201c0,3.99675 4.07817,7.05774 9.41189,7.05774 5.33018,0 9.40835,-3.06099 9.40835,-7.05774l0 -0.47201c3.76428,-0.942841 6.27302,-3.52946 6.27302,-6.5869l0 -5.88243c7.52975,-3.76428 12.546,-10.3547 12.546,-17.6449zm-50.1865 0c0,-9.17588 9.72459,-16.4696 21.9579,-16.4696 12.2298,0 21.9544,7.29374 21.9544,16.4696 0,8.23304 -8.15516,15.0583 -18.8202,16.2336l0 -5.88597 5.33018 -3.99675c1.25555,-0.942841 1.25555,-2.35415 0,-3.29345 -1.25201,-0.942841 -3.13533,-0.942841 -4.39088,0l-4.07463 3.05745 -4.08171 -3.05745c-1.25201,-0.942841 -3.13533,-0.942841 -4.39088,0 -1.25201,0.939301 -1.25201,2.35061 0,3.29345l5.33372 3.99675 0 5.88597c-10.6639,-1.17531 -18.8202,-8.00058 -18.8202,-16.2336l0.00236005 0zm21.9579 32.9357c-1.88568,0 -3.13887,-0.939301 -3.13887,-2.35061l6.27302 0c0,1.41131 -1.25555,2.35061 -3.13533,2.35061l0.00118003 0zm9.40835 -9.40835c0,1.41131 -1.25555,2.35061 -3.13887,2.35061l-12.546 0c-1.88214,0 -3.13533,-0.939301 -3.13533,-2.35061l0 -3.52946c2.82144,0.703295 5.96031,1.17531 9.41189,1.17531 3.44804,0 6.5869,-0.47201 9.40835,-1.17531l0 3.52946z"/>
  <g style="clip-path:url(#id0)">
   <polygon class="fil7" points="28.8811,267.784 104.16,267.784 104.16,324.248 28.8811,324.248 "/>
  </g>
  <g style="clip-path:url(#id1)">
   <g id="_383534832">
    <path id="_4123932001" class="fil6" d="M85.3371 286.605l-3.13533 0 0 -4.70358c0,-6.49368 -7.02469,-11.766 -15.6849,-11.766 -8.65667,0 -15.6814,5.27118 -15.6814,11.766l0 4.70358 -3.13887 0c-3.44804,0 -6.27302,2.11815 -6.27302,4.70358l0 23.5274c0,2.59016 2.82498,4.70712 6.27302,4.70712l37.6393 0c3.45158,0 6.27656,-2.11815 6.27656,-4.70712l0 -23.5274c0,-2.58544 -2.82498,-4.70358 -6.27656,-4.70358l0.00118003 0zm-18.8202 21.1767c-3.44804,0 -6.27302,-2.11815 -6.27302,-4.70712 0,-2.59016 2.82498,-4.70712 6.27302,-4.70712 3.45158,0 6.27656,2.11815 6.27656,4.70712 0,2.59016 -2.82498,4.70712 -6.27656,4.70712zm9.72577 -21.1767l-19.4456 0 0 -4.70358c0,-4.02271 4.36138,-7.29374 9.72105,-7.29374 5.36676,0 9.72459,3.27103 9.72459,7.29374l0 4.70358z"/>
   </g>
  </g>
  <polygon class="fil8" points="28.8811,324.248 104.16,324.248 104.16,267.784 28.8811,267.784 28.8811,324.248 "/>
  <polyline class="fil8" points="28.8811,324.248 104.161,324.248 104.161,267.784 28.8811,267.784 28.8811,324.248 "/>
  <polygon class="fil6" points="628.95,41.6868 577.727,41.6868 577.727,65.7003 628.95,65.7003 "/>
  <polygon class="fil6" points="642.761,46.4682 631.453,50.0296 631.453,57.4602 642.761,61.0262 646.86,61.0262 646.86,46.4682 "/>
 </g>
 <g id="Layer_x0020_1_0_1">
  <metadata id="CorelCorpID_2Corel-Layer"/>
  <path class="fil9" d="M458.694 654.184c-3.4917,13.6411 1.23785,21.5048 4.95847,23.4424 7.38578,3.8457 15.6294,8.66021 15.6294,8.66021 0,0 51.3571,87.9757 66.2431,94.2758 17.3688,7.34566 57.0637,11.1654 57.0637,11.1654l17.3653 -34.7329c0,0 -39.6949,-8.68617 -57.0602,-12.4068 -11.7035,-2.50874 -63.2659,-58.3004 -63.2659,-58.3004l9.92756 -17.3688 -18.6102 0c-13.6446,-9.92402 -21.0375,-30.3644 -21.0375,-30.3644 0,0 -8.83367,6.31432 -11.2126,15.6294l-0.00118003 0z"/>
  <path class="fil10" d="M662.152 812.043c-6.2506,-6.2506 -42.2001,-16.1487 -59.3919,-20.3189l17.1918 -34.3871c6.77099,0 26.5706,-1.56235 51.5789,-7.81295 31.2589,-7.81649 42.2001,-35.9483 78.1484,-6.2506 28.762,23.7563 78.6712,127.642 100.033,176.616 -33.5953,32.0224 -55.9026,42.4172 -100.033,51.5789 -2.60432,-5.20863 -10.3146,-22.8205 -20.3189,-51.5789 -12.5024,-35.9483 -51.5789,-35.9483 -57.8295,-48.4507 -6.2506,-12.5059 -1.56235,-51.5789 -9.37885,-59.3954l0 0z"/>
  <path class="fil11" d="M774.691 1166.84c-11.2574,-25.0083 -11.464,-143.798 -15.633,-198.5 38.1184,-7.49198 58.2496,-17.1434 90.6543,-50.0166 0,0 53.1436,25.0083 50.0166,82.8414 -3.12707,57.8295 20.3814,87.0257 34.3871,106.28 12.5024,17.1953 42.2001,53.6629 57.8295,78.1519l-15.6294 29.6942c-17.1918,-18.2338 -67.5211,-55.3279 -93.7778,-76.586 -26.2603,-21.2546 -34.9099,-74.5021 -39.0766,-103.157 -2.60786,30.2169 -15.6294,85.6522 -9.37885,103.157 6.2506,17.5045 73.4625,70.3354 100.033,96.9049l-9.37885 26.5706c-45.3272,-21.3573 -138.792,-70.3319 -150.045,-95.3402l0 0 -0.00118003 0z"/>
  <path class="fil12" d="M640.961 703.772c1.31573,-5.25348 -0.545172,-20.7991 1.63906,-26.2733 15.7675,2.62674 24.6342,13.6859 27.9171,18.065 3.28401,-0.548712 7.99586,-2.07213 9.85204,1.63906 1.64378,3.28401 0,9.85204 -4.92307,14.781l11.4923 31.2011c-5.447,3.54008 -8.76169,4.72482 -14.7763,6.56802 3.28401,-8.2118 1.64024,-14.781 0,-18.065 -11.8239,9.19594 -16.4201,8.75815 -21.3478,8.21298l-4.92897 -21.3478 -8.20826 1.63906c1.64024,-2.73412 1.96828,-11.163 3.28401,-16.4201l0 0z"/>
  <path class="fil13" d="M671.526 697.944c-6.2506,-8.75225 -21.3573,-15.1102 -28.1318,-17.1918 -12.5024,-9.37885 -6.2506,-29.6977 23.4459,-39.0766 29.6942,-9.37885 42.2001,15.6294 48.4507,21.8812 6.2506,6.2506 9.37885,26.5706 37.5107,39.0766 28.1354,12.5024 26.5742,-3.12707 43.7648,-3.12707 17.1918,0 25.0083,10.94 21.8812,20.3189 -3.12353,9.37885 -4.68942,20.3189 14.0683,32.8248 18.7565,12.5024 1.56235,29.6942 0,48.4507 -1.56235,18.7565 -26.5706,9.37885 -53.1401,9.37885 -26.5742,0 -21.8848,0 -26.5742,-17.1918 -4.68942,-17.1953 -12.5024,-23.4459 -21.8812,-28.1354 -9.37885,-4.68942 -31.2589,-1.56235 -35.9483,-6.2506 -3.75012,-3.75366 -14.0683,-31.7828 -18.7565,-45.3272 2.08511,-3.12707 5.94143,-10.3146 4.68942,-14.0683 -1.24847,-3.75012 -6.77453,-2.60432 -9.37885,-1.56235l0 0z"/>
  <path class="fil14" d="M612.134 887.067l75.0249 -4.68942c8.75225,1.24847 23.4459,11.9832 29.6977,17.1918 -2.08511,4.68942 -8.13038,14.0683 -15.6294,14.0683 -7.50379,0 -62.519,-9.37885 -89.092,-14.0683l-6.2506 0 0 -23.4424 6.2506 10.94 0 0 -0.00118003 0z"/>
  <polygon class="fil4" points="605.882,910.513 605.882,857.369 579.313,857.369 579.313,910.513 "/>
  <path class="fil5" d="M976.313 1305.95c-7.50379,-1.24847 -38.0334,-30.2205 -51.5789,-43.7613l9.37885 -26.5742c6.2506,2.60432 19.3796,7.1899 21.8812,10.94 3.12707,4.68942 29.6977,60.9566 20.3189,59.3954z"/>
  <path class="fil5" d="M1013.83 1271.56c-3.75366,-6.2506 -26.5742,-36.4722 -37.5142,-56.2672l15.6294 -29.6977c7.29374,6.2506 7.81649,6.2506 15.6294,17.1953 3.63566,5.08355 10.9436,76.586 6.25532,68.7696z"/>
  <path class="fil15" d="M852.837 990.222l-9.37885 46.8931c1.56235,17.1918 10.94,59.3919 26.5706,89.0884 -18.753,-59.3954 -12.5024,-103.679 -17.1918,-135.981l0 0z"/>
 </g>
</svg>
