<?xml version="1.0" encoding="UTF-8"?>
<!DOCTYPE svg PUBLIC "-//W3C//DTD SVG 1.1//EN" "http://www.w3.org/Graphics/SVG/1.1/DTD/svg11.dtd">
<!-- Creator: CorelDRAW -->
<svg xmlns="http://www.w3.org/2000/svg" xml:space="preserve" width="716px" height="912px" style="shape-rendering:geometricPrecision; text-rendering:geometricPrecision; image-rendering:optimizeQuality; fill-rule:evenodd; clip-rule:evenodd"
viewBox="0 0 585.265 745.463"
 xmlns:xlink="http://www.w3.org/1999/xlink">
 <defs>
  <style type="text/css">
   <![CDATA[
    .fil1 {fill:#5A98D0}
    .fil6 {fill:#F2994A}
    .fil8 {fill:#F2C94C}
    .fil0 {fill:white}
    .fil9 {fill:black;fill-opacity:0.200000}
    .fil3 {fill:url(#id0)}
    .fil4 {fill:url(#id1)}
    .fil2 {fill:url(#id2)}
    .fil5 {fill:url(#id3)}
    .fil7 {fill:url(#id4)}
   ]]>
  </style>
  <linearGradient id="id0" gradientUnits="userSpaceOnUse" x1="349.003" y1="261.352" x2="349.003" y2="472.1">
   <stop offset="0" style="stop-color:#5E199D"/>
   <stop offset="1" style="stop-color:#5E199D"/>
   <stop offset="2.05098" style="stop-color:#AF6CED"/>
   <stop offset="1" style="stop-color:#AF6CED"/>
  </linearGradient>
  <linearGradient id="id1" gradientUnits="userSpaceOnUse" x1="470.981" y1="428.673" x2="470.981" y2="709.673">
   <stop offset="0" style="stop-color:#872727"/>
   <stop offset="1" style="stop-color:#872727"/>
   <stop offset="2.2" style="stop-color:#EB5757"/>
   <stop offset="1" style="stop-color:#EB5757"/>
  </linearGradient>
  <linearGradient id="id2" gradientUnits="userSpaceOnUse" x1="264.589" y1="217.017" x2="125.073" y2="308.239">
   <stop offset="0" style="stop-color:#FFCC80"/>
   <stop offset="1" style="stop-color:#FFCC80"/>
   <stop offset="2.1098" style="stop-color:#FFF8E1"/>
   <stop offset="1" style="stop-color:#FFF8E1"/>
  </linearGradient>
  <linearGradient id="id3" gradientUnits="userSpaceOnUse" x1="318.296" y1="254.701" x2="277.527" y2="270.556">
   <stop offset="0" style="stop-color:#FFCC80"/>
   <stop offset="1" style="stop-color:#FFCC80"/>
   <stop offset="2.16078" style="stop-color:#FFF8E1"/>
   <stop offset="1" style="stop-color:#FFF8E1"/>
  </linearGradient>
  <linearGradient id="id4" gradientUnits="userSpaceOnUse" x1="307.364" y1="389.618" x2="284.626" y2="429.41">
   <stop offset="0" style="stop-color:#FFCC80"/>
   <stop offset="1" style="stop-color:#FFCC80"/>
   <stop offset="2.21961" style="stop-color:#FFF8E1"/>
   <stop offset="1" style="stop-color:#FFF8E1"/>
  </linearGradient>
 </defs>
 <g id="Layer_x0020_1">
  <metadata id="CorelCorpID_0Corel-Layer"/>
  <g id="_410878560">
   <g filter="url(#filter0_d)">
    <path id="_413044368" class="fil0" d="M25.546 0l173.708 0c14.1049,0.000965496 25.5441,11.4402 25.5441,25.546l0.00193099 173.708c-0.00193099,14.104 -11.4411,25.5432 -25.547,25.5432l-173.707 0.00289649c-14.1049,-0.00289649 -25.5441,-11.4421 -25.5441,-25.548l-0.00193099 -173.706c0.00193099,-14.1059 11.4411,-25.5451 25.547,-25.5451z"/>
   </g>
   <polygon id="_413044968" class="fil1" points="102.182,153.272 102.182,122.618 122.618,122.618 122.618,153.272 148.164,153.272 148.164,112.4 163.491,112.4 112.4,66.4184 61.309,112.4 76.6362,112.4 76.6362,153.272 "/>
  </g>
  <path class="fil2" d="M130.366 212.815c-2.85207,11.1486 1.0128,17.5759 4.05412,19.1593 6.03435,3.14269 12.7725,7.07515 12.7725,7.07515 0,0 41.9682,71.8966 54.1334,77.0417 14.1909,6.00345 46.6296,9.12393 46.6296,9.12393l14.1918 -28.3836c0,0 -32.4378,-7.09639 -46.6305,-10.1377 -9.56227,-2.04878 -51.6984,-47.6443 -51.6984,-47.6443l8.11016 -14.1918 -15.2066 0c-11.1505,-8.1092 -17.1926,-24.8152 -17.1926,-24.8152 0,0 -7.21611,5.15961 -9.16352,12.7725z"/>
  <path class="fil3" d="M296.633 341.819c-5.10844,-5.1094 -34.4856,-13.1993 -48.5355,-16.6046l14.0499 -28.1008c5.53422,0 21.713,-1.27639 42.1497,-6.38579 25.5451,-6.38675 34.4865,-29.3771 63.8637,-5.1094 23.5031,19.4152 64.2885,104.31 81.7466,144.332 -27.4539,26.1659 -45.6853,34.6623 -81.7466,42.1497 -2.12892,-4.2588 -8.42974,-18.6485 -16.6046,-42.1497 -10.2178,-29.3771 -42.1497,-29.3771 -47.2591,-39.5959 -5.1094,-10.2178 -1.27735,-42.1497 -7.6641,-48.5355z"/>
  <path class="fil4" d="M388.598 631.76c-9.19828,-20.4366 -9.3682,-117.51 -12.7745,-162.214 31.1488,-6.12317 47.5999,-14.0093 74.0834,-40.8723 0,0 43.427,20.4366 40.8723,67.6957 -2.5547,47.2581 16.6558,71.1203 28.0998,86.8541 10.2188,14.0499 34.4865,43.8538 47.2591,63.8637l-12.7725 24.2677c-14.0499,-14.9005 -55.1781,-45.2151 -76.6362,-62.5863 -21.4581,-17.3702 -28.5265,-60.8822 -31.9318,-84.2994 -2.12988,24.6945 -12.7725,69.9946 -7.66314,84.2994 5.10844,14.3057 60.0316,57.4769 81.7447,79.1909l-7.66314 21.714c-37.0412,-17.4552 -113.422,-57.4779 -122.618,-77.9136z"/>
  <path class="fil5" d="M281.306 254.964c1.02246,-4.08694 -0.424818,-16.1788 1.27735,-20.4357 12.2618,2.04299 19.1593,10.6436 21.714,14.0499 2.5547,-0.425784 6.21876,-1.61334 7.66314,1.27735 1.27735,2.55374 0,7.66314 -3.83109,11.4952l8.94049 24.2677c-4.23756,2.75263 -6.8164,3.67661 -11.4952,5.1094 2.5547,-6.38675 1.27735,-11.4952 0,-14.0499 -9.19635,7.15239 -12.7725,6.81157 -16.6046,6.38579l-3.83205 -16.6046 -6.38579 1.27735c1.27735,-2.12795 1.53224,-8.68463 2.55374,-12.7725z"/>
  <path class="fil6" d="M304.295 248.578c-5.10844,-7.15336 -17.4552,-12.3468 -22.9904,-14.0499 -10.2178,-7.6641 -5.1094,-24.2687 19.1593,-31.9318 24.2677,-7.6641 34.4856,12.7725 39.595,17.8819 5.1094,5.10844 7.6641,21.713 30.6545,31.9309 22.9913,10.2188 21.714,-2.55374 35.7639,-2.55374 14.0499,0 20.4366,8.94049 17.8819,16.6036 -2.5547,7.6641 -3.83205,16.6046 11.4952,26.8234 15.3272,10.2178 1.27735,24.2677 0,39.595 -1.27735,15.3272 -21.714,7.6641 -43.427,7.6641 -21.714,0 -17.8819,0 -21.714,-14.0499 -3.83205,-14.0509 -10.2178,-19.1593 -17.8819,-22.9913 -7.66314,-3.83205 -25.5451,-1.27735 -29.3771,-5.1094 -3.06545,-3.06545 -11.4952,-25.9709 -15.3272,-37.0403 1.70313,-2.5547 4.85355,-8.42974 3.83205,-11.4952 -1.02149,-3.06545 -5.53519,-2.12892 -7.6641,-1.27735z"/>
  <path class="fil7" d="M255.761 403.128l61.309 -3.83205c7.15239,1.02149 19.1593,9.79206 24.2687,14.0499 -1.70313,3.83205 -6.64261,11.4952 -12.7735,11.4952 -6.1309,0 -51.0902,-7.66314 -72.8042,-11.4952l-5.1094 0 0 -19.1593 5.1094 8.94146z"/>
  <polygon class="fil8" points="250.651,422.287 250.651,378.86 228.938,378.86 228.938,422.287 "/>
  <path class="fil1" d="M553.366 745.436c-6.1309,-1.02149 -31.0812,-24.6945 -42.1497,-35.7629l7.66314 -21.714c5.1094,2.12795 15.838,5.87504 17.8819,8.94049 2.5547,3.83205 24.2687,49.8138 16.6046,48.5364z"/>
  <path class="fil1" d="M584.021 717.336c-3.06545,-5.1094 -21.714,-29.8039 -30.6545,-45.9817l12.7725 -24.2677c5.96,5.10844 6.38675,5.10844 12.7725,14.0499 2.9689,4.15646 8.94146,62.5863 5.1094,56.1996z"/>
  <path class="fil9" d="M452.462 487.428l-7.6641 38.3186c1.27735,14.0499 8.94146,48.5355 21.714,72.8042 -15.3272,-48.5364 -10.2188,-84.7271 -14.0499,-111.123z"/>
 </g>
</svg>
